<svg xmlns="http://www.w3.org/2000/svg" version="1.1" xmlns:xlink="http://www.w3.org/1999/xlink" width="740" height="740"><svg version="1.1" id="SvgjsSvg1249" width="740" height="740" viewBox="0 0 740.00001 740" xmlns="http://www.w3.org/2000/svg" xmlns:svg="http://www.w3.org/2000/svg">
  <defs id="SvgjsDefs1248"></defs>
  <g id="SvgjsG1247" transform="translate(2.0691642e-4,-0.00387548)">
    <g id="SvgjsG1246">
      <path id="SvgjsPath1245" d="m 429.08065,319.81421 c 3.296,-0.48267 6.51866,-0.59333 9.676,-0.50667 0.16933,-0.71066 0.27466,-1.14666 0.27466,-1.14666 1.868,0.47333 3.72267,0.98 5.57467,1.50266 1.332,0.116 2.656,0.24667 3.968,0.388 5.66267,0.784 10.83867,0.85467 16.3,1.34934 -20.46933,-7.8 -38.96667,-13.37067 -54.84,-8.64934 5.59733,1.828 11.51067,4.22667 17.46,7.31734 0.52667,-0.1 1.06,-0.18934 1.58667,-0.25467" style="fill:#72c833;fill-opacity:1;fill-rule:nonzero;stroke:none;stroke-width:0.133333"></path>
      <path id="SvgjsPath1244" d="m 385.46998,231.28088 c -5.532,14.404 -8.69333,29.116 -8.94666,42.78666 4.79733,-13.916 8.472,-28.176 8.94666,-42.78666" style="fill:#f257ae;fill-opacity:1;fill-rule:nonzero;stroke:none;stroke-width:0.133333"></path>
      <path id="SvgjsPath1243" d="m 367.99265,310.39688 1.94133,1.72 c 0.572,-1.06534 1.16667,-2.10934 1.764,-3.15467 -0.54133,-1.24933 -1.05333,-2.51867 -1.524,-3.816 -0.732,1.74533 -1.46266,3.496 -2.18133,5.25067" style="fill:#f257ae;fill-opacity:1;fill-rule:nonzero;stroke:none;stroke-width:0.133333"></path>
      <path id="SvgjsPath1242" d="m 412.42465,247.31421 c 1.48133,-2.62 2.9,-5.29333 4.25866,-8 -9.46399,10.53333 -17.05066,22.75467 -22.17999,35.90933 6.37333,-9.11733 12.532,-18.31733 17.92133,-27.90933" style="fill:#f257ae;fill-opacity:1;fill-rule:nonzero;stroke:none;stroke-width:0.133333"></path>
      <path id="SvgjsPath1241" d="m 441.60331,216.43288 c 5.06267,-2.432 10.26934,-4.50267 15.54934,-6.28267 -5.088,2.28534 -10.03334,4.83467 -14.76667,7.70667 -4.45067,2.72266 -8.704,5.75866 -12.73733,9.06533 -4.588,11.89467 -10.832,23.04 -17.77333,33.748 8.41466,-7.86267 18.48133,-15.07067 29.94933,-21.30933 26.46266,-14.4 57.25333,-21.69334 84.41333,-20.27467 0.48,-0.66 0.948,-1.328 1.408,-2.012 l 4.58267,-6.828 c 10.43733,-15.53733 16.60799,-24.728 19.08799,-30.00133 -1.464,0.552 -2.95066,0.988 -4.42933,1.32 -10.77866,2.20267 -21.78266,0.804 -32.508,0.68 -13.99333,-0.38133 -28.932,0.908 -40.22533,10.05867 22.592,-20.688 58.65867,-7.5 77.08,-17.84267 -0.39467,-0.47733 -0.88667,-1.04133 -1.50667,-1.748 -2.21467,-2.52533 -5.24533,-5.988 -8.46533,-11.48 -4.98533,-8.50533 -14.32933,-14.828 -26.31333,-17.8 -3.97867,-0.98933 -9.37334,-1.85867 -16.02,-1.85867 -12.13067,0 -28.45067,2.89867 -48.012,13.24 -0.564,2.904 -1.09067,5.39334 -1.496,7.23734 -1.724,7.62666 -3.768,15.16666 -6.08534,22.62 -2.99733,12.50266 -6.97733,23.72666 -10.13466,31.67733 -0.54934,1.91466 -1.14,3.81466 -1.77867,5.68933 3.296,-2.03067 6.688,-3.908 10.18133,-5.60533" style="fill:#f257ae;fill-opacity:1;fill-rule:nonzero;stroke:none;stroke-width:0.133333"></path>
      <path id="SvgjsPath1240" d="m 355.92598,206.42488 c 5.81067,16.60533 6.67467,34.34266 5.83467,52.15466 0.292,3.79467 0.49467,7.60534 0.53733,11.44667 0,0 -0.0227,0 -0.048,0 1.66267,11.17867 1.61467,21.98667 -0.44,31.86133 0.68134,1.62267 1.39867,3.22267 2.15334,4.792 1.26666,-3.184 2.556,-6.36266 3.81333,-9.55333 -4.92933,-20.44 -2.328,-45.31733 7.756,-70.876 1.37333,-3.47867 2.87467,-6.91067 4.47867,-10.296 -7.38,-18.5 -14.832,-39.45333 -9.99734,-61.15066 -0.0587,-8.84134 1.48534,-16.792 5.98267,-21.53067 16.992,-13.04133 18.54533,38.56 18.62133,47.344 0.0427,3.46 0.008,6.91733 -0.084,10.37333 7.972,-11.39866 17.16934,-21.596 27.07733,-29.94666 0.212,-5.94134 0.89467,-11.888 2.25334,-17.756 -4.76934,-10.83067 -12.172,-20.408 -19.072,-31.09067 -2.376,-3.81867 -4.6,-7.87733 -6.33333,-12.07333 -1.516,-4.236004 -3.52267,-6.878671 -8.32934,-7.217337 -0.948,-0.036 -1.90666,-0.0027 -2.86933,0.08 -7.69333,19.165337 -20.356,36.382667 -29.66667,51.169337 -4.38266,20.208 -3.648,41.41066 -1.668,62.26933" style="fill:#f257ae;fill-opacity:1;fill-rule:nonzero;stroke:none;stroke-width:0.133333"></path>
      <path id="SvgjsPath1239" d="m 350.87265,216.79421 c -12.80933,-17.29733 -31.52933,-37.324 -36.05467,-63.512 -1.15733,3.70267 -1.92266,7.51867 -2.19333,11.40934 -0.33467,5.236 0.48667,10.42266 2.27067,15.284 16.848,16.85733 30.52,37.96933 39.00933,59.54666 -0.508,-3.59733 -1.02,-7.19067 -1.49067,-10.776 -0.524,-3.95333 -1.044,-7.94133 -1.54133,-11.952" style="fill:#f257ae;fill-opacity:1;fill-rule:nonzero;stroke:none;stroke-width:0.133333"></path>
      <path id="SvgjsPath1238" d="m 292.83532,227.14354 c -9.41867,-5.80666 -19.68267,-10.19733 -30.35867,-13.23333 11.03067,2.00667 21.81333,5.43733 31.92133,10.39067 17.35067,8.532 32.65867,21.308 44.33734,36.82533 -3.984,-8.63333 -8.75867,-16.81333 -15.072,-24.03067 -16.69467,-8.496 -38.40934,-17.36666 -48.26267,-37.91999 -0.408,-0.50934 -0.816,-1.01467 -1.20933,-1.54 -2.256,-3.34134 -4.66533,-7.01734 -4.40133,-11.48267 0.176,-2.408 2.06,-4.56933 4.71466,-4.23333 2.904,0.32 5.25334,1.84533 7.60533,3.30533 4.21867,2.78667 7.93467,6.004 11.52,9.34533 3.9,3.69334 7.608,7.57467 11.144,11.604 9.07467,7.84667 16.68667,17.39867 21.96,24.86133 11.70934,12.068 19.004,28.02934 25.00534,43.812 -5.01334,-42.90933 -39.54934,-94.45066 -81.08267,-112.70799 -18.27866,-8.03334 -34.804,-11.13334 -49.23733,-11.13334 -30.12133,0 -51.13333,13.49467 -59.992,23.78934 -0.756,0.872 -1.472,1.70133 -2.152,2.48533 -4.09333,4.71867 -7.62933,8.796 -7.36267,10.30667 0.06,0.33733 0.22534,0.74133 0.46534,1.19066 5.328,1.40534 11.24933,1.516 16.656,1.624 23.36533,0.38667 53.57866,-5.08666 74.11866,8.208 -24.656,-13.972 -59.01466,-2.25333 -86.21333,-4.09333 2.13867,2.31867 4.844,5.06533 7.91733,8.18 6.27334,6.36533 14.864,15.07866 25.83067,27.31466 9.43333,10.524 21.896,17.22534 35.752,21.98667 14.24133,2.71733 29.432,2.04267 43.88533,2.252 14.24667,0.22267 29.212,0.036 42.70933,5.38 4.44934,1.84667 8.60267,4.47867 11.86267,7.98 -7.02267,-6.62133 -16.7,-9.01867 -26.048,-9.848 -15.08133,-1.31467 -30.36133,0.45867 -45.576,1.26667 5.84134,1.20533 11.74134,2.28933 17.604,3.368 27.744,5.09866 56.208,10.33466 71.992,28.78933 -1.656,-5.71867 -4.028,-11.284 -6.62267,-16.60133 -9.71866,-19.31467 -24.864,-36.01734 -43.41066,-47.44134" style="fill:#f257ae;fill-opacity:1;fill-rule:nonzero;stroke:none;stroke-width:0.133333"></path>
      <path id="SvgjsPath1237" d="m 393.65132,213.40221 c -0.42134,6.81733 -1.136,12.948 -1.83867,17.82267 -0.87333,19.704 -7.21333,38.456 -14.48667,56.59066 0.19334,1.36 0.42,2.70267 0.68534,4.03067 1.488,-5.088 3.39866,-10.05733 5.50933,-14.892 8.472,-18.86533 21.592,-35.52133 37.904,-48.028 2.11733,-5.16 3.924,-10.43067 5.296,-15.78 -1.496,-11.52533 -3.888,-24.33866 -4.81067,-37.516 -11.22933,10.816 -20.82,23.85734 -28.25866,37.772" style="fill:#f257ae;fill-opacity:1;fill-rule:nonzero;stroke:none;stroke-width:0.133333"></path>
      <path id="SvgjsPath1236" d="m 339.92065,156.06355 c 1.48133,3.096 2.97333,6.23066 4.45467,9.32933 1.23733,2.58267 2.34666,5.22 3.344,7.876 0.0547,-10.448 0.904,-20.83333 2.98933,-31.00133 0.58267,-8.36267 1.77733,-19.456 4.21733,-31.18934 0.18134,-1.28933 0.368,-2.57733 0.564,-3.864 -5.05333,3.29867 -9.992,6.84 -14.79066,10.45334 -4.49334,3.608 -8.81334,7.75733 -12.664,12.32933 0.0533,0.076 0.10666,0.15333 0.15866,0.22667 4.99467,8.17066 8.64934,16.892 11.72667,25.84" style="fill:#f257ae;fill-opacity:1;fill-rule:nonzero;stroke:none;stroke-width:0.133333"></path>
      <path id="SvgjsPath1235" d="m 322.53265,315.40488 c -19.792,-5.524 -41.13333,-5.88134 -61.16933,-0.712 -10.71467,2.76 -20.996,7.11066 -30.58533,12.69866 9.092,-6.556 19.04266,-11.94533 29.62133,-15.79733 18.97867,-6.87333 39.752,-8.93867 59.82266,-6.072 -34.796,-12.48533 -73.00666,-16.36667 -108.96399,-7.04 -15.02534,3.98 -29.50134,10.72267 -41.69867,20.73333 11.47333,-10.82666 25.684,-18.72266 40.74933,-23.83333 30.39067,-10.304 63.53734,-10.72533 94.94933,-4.73867 5.616,1.09334 11.18934,2.416 16.71467,3.93734 -20.29867,-11.58934 -46.684,-18.208 -72.85066,-18.208 -17.372,0 -34.64134,2.91466 -49.97734,9.22666 -37.916,15.60667 -51.548,37.72534 -56.29999,49.52134 -4.612,11.45333 -4.96667,22.72933 -0.99734,31.75066 2.90134,6.596 3.77467,12.00267 4.41067,15.95467 0.005,0.0213 0.008,0.0427 0.012,0.064 19.428,-8.47334 29.90666,-45.996 60.084,-52.18267 -14.03867,3.79067 -23.83067,15.13467 -31.72534,26.69733 -6.18533,8.76267 -11.5,18.49867 -19.60133,25.94134 -2.18533,1.93333 -4.69067,3.67733 -7.50533,4.93866 0.616,1.29067 1.556,1.86267 3.44,2.58 5.73466,2.18667 18.05466,3.432 42.52533,4.3 11.09867,0.39734 21.77733,-2.37333 32.148,-7.01866 5.176,-3.672 9.99333,-7.97734 14.58933,-12.30534 15.00267,-14.22266 28.23867,-30.57999 44.39467,-43.71999 4.08666,-3.26 8.40533,-6.284 13.088,-8.64267 4.68,-2.32533 9.84,-3.864 15.04666,-3.828 -10.52933,0.60133 -19.35066,7.11067 -26.93333,13.88533 -13.31866,12.23067 -24.19866,26.648 -36.18,40.19867 0.93067,-0.54667 1.85734,-1.09867 2.79734,-1.632 0.512,-0.29334 1.03333,-0.576 1.54666,-0.86667 6.22267,-4.44 12.36534,-9.15467 18.45334,-13.83067 10.22666,-7.85466 20.57599,-15.79199 31.06933,-22.04533 5.17466,-7.73733 11.46266,-14.88133 19.02533,-19.95466" style="fill:#f257ae;fill-opacity:1;fill-rule:nonzero;stroke:none;stroke-width:0.133333"></path>
      <path id="SvgjsPath1234" d="m 254.01399,506.2022 1.172,-0.59066 c 1.588,3.13733 5.64533,11.19466 8.27466,16.65066 0.856,-1.01733 1.72934,-2.01733 2.61467,-3.008 -2.24667,-4.40933 -6.84133,-13.604 -10.192,-20.32266 -0.64933,2.448 -1.268,4.872 -1.86933,7.27066" style="fill:#72c833;fill-opacity:1;fill-rule:nonzero;stroke:none;stroke-width:0.133333"></path>
      <path id="SvgjsPath1233" d="m 243.56999,550.5262 c 1.43066,-2.25066 2.87066,-4.48 4.31066,-6.67466 l -2.02533,-2.77467 c -0.77333,3.31333 -1.53067,6.46533 -2.28533,9.44933" style="fill:#f257ae;fill-opacity:1;fill-rule:nonzero;stroke:none;stroke-width:0.133333"></path>
      <path id="SvgjsPath1232" d="m 262.73799,475.64354 c 3.07066,5.188 12.74933,21.57333 17.34533,29.816 1.54533,-1.376 3.10933,-2.73867 4.684,-4.08534 -3.136,-7.28266 -12.87067,-24.09999 -19.02133,-34.43999 -1.04934,2.89066 -2.05067,5.79466 -3.008,8.70933" style="fill:#72c833;fill-opacity:1;fill-rule:nonzero;stroke:none;stroke-width:0.133333"></path>
      <path id="SvgjsPath1231" d="m 250.13932,522.3782 c 2.06,3.50934 4.24667,7.108 5.85067,9.59467 1.216,-1.69333 2.42,-3.31067 3.61866,-4.88133 -1.41066,-2.99867 -4.22266,-8.69734 -7.15333,-14.54134 -0.808,3.356 -1.57867,6.63867 -2.316,9.828" style="fill:#72c833;fill-opacity:1;fill-rule:nonzero;stroke:none;stroke-width:0.133333"></path>
      <path id="SvgjsPath1230" d="m 248.22199,530.7582 c -0.24267,1.064 -0.47867,2.11067 -0.71734,3.14934 l 3.65734,5.00933 c 0.47466,-0.7 0.94666,-1.38267 1.41866,-2.072 -1.09466,-1.548 -2.51066,-3.756 -4.24133,-6.60533 -0.0373,0.172 -0.0773,0.35066 -0.11733,0.51866" style="fill:#f257ae;fill-opacity:1;fill-rule:nonzero;stroke:none;stroke-width:0.133333"></path>
      <path id="SvgjsPath1229" d="m 258.08465,490.88354 c 4.06934,8.17066 9.204,18.456 12.03067,24.04533 1.868,-1.91733 3.788,-3.78533 5.74533,-5.62 -3.36,-6.10933 -10.928,-19.004 -15.38133,-26.55467 -0.83067,2.716 -1.63067,5.43067 -2.39467,8.12934" style="fill:#72c833;fill-opacity:1;fill-rule:nonzero;stroke:none;stroke-width:0.133333"></path>
      <path id="SvgjsPath1228" d="m 284.47132,426.42487 c 2.76533,3.50534 15.532,19.77867 25.26933,33.49734 -0.15867,-2.59467 -0.208,-5.19334 -0.15867,-7.792 -6.54533,-10.16 -14.43066,-22.25734 -21,-32.272 -1.39466,2.112 -2.76666,4.3 -4.11066,6.56666" style="fill:#72c833;fill-opacity:1;fill-rule:nonzero;stroke:none;stroke-width:0.133333"></path>
      <path id="SvgjsPath1227" d="m 268.24465,460.28087 c 3.44134,5.72134 16.028,26.812 20.932,37.368 2.11067,-1.76133 4.22933,-3.504 6.34667,-5.24533 -2.476,-5.96534 -13.05867,-23.41333 -23.97333,-40.22667 -1.12267,2.63467 -2.22534,5.33067 -3.30534,8.104" style="fill:#72c833;fill-opacity:1;fill-rule:nonzero;stroke:none;stroke-width:0.133333"></path>
      <path id="SvgjsPath1226" d="m 296.57265,421.91021 c 3.48933,5.336 8.06133,12.34133 12.59733,19.33866 0.36267,0.55734 0.704,1.08134 1.05067,1.62 0.41467,-3.40133 1.02533,-6.776 1.86267,-10.10133 -1.60134,-2.33333 -3.196,-4.64 -4.74667,-6.86667 -3.888,-0.94533 -7.51733,-2.25333 -10.764,-3.99066" style="fill:#72c833;fill-opacity:1;fill-rule:nonzero;stroke:none;stroke-width:0.133333"></path>
      <path id="SvgjsPath1225" d="m 279.46199,435.38887 c 6.32666,7.92 25.56799,32.51734 30.59199,44.80134 0.79334,-0.7 1.584,-1.40267 2.368,-2.11067 -0.0453,-0.2 -0.0987,-0.39467 -0.14266,-0.59333 -0.428,-1.89467 -0.81067,-3.808 -1.144,-5.732 -7.51734,-11.472 -21.88134,-30.23067 -29.64934,-40.13067 -0.68133,1.23467 -1.356,2.488 -2.02399,3.76533" style="fill:#72c833;fill-opacity:1;fill-rule:nonzero;stroke:none;stroke-width:0.133333"></path>
      <path id="SvgjsPath1224" d="m 274.23132,446.10487 c 5.66933,8.67067 20.628,31.84534 25.67733,42.68533 1.20667,-0.99733 2.40933,-1.99466 3.60533,-2.99466 0.68534,-0.57467 1.36934,-1.15334 2.05334,-1.73067 -1.74134,-7.21066 -17.268,-28.552 -28.85733,-43.20533 -0.83734,1.71467 -1.664,3.46133 -2.47867,5.24533" style="fill:#72c833;fill-opacity:1;fill-rule:nonzero;stroke:none;stroke-width:0.133333"></path>
      <path id="SvgjsPath1223" d="m 265.17799,448.48087 c -11.32,4.33067 -30.73067,11.568 -39.07734,13.59467 -0.104,3.22267 -0.096,6.45867 0.0227,9.69867 10.048,-5.36 29.94133,-14.90134 36.94533,-18.24134 0.69734,-1.708 1.39734,-3.396 2.10934,-5.052" style="fill:#72c833;fill-opacity:1;fill-rule:nonzero;stroke:none;stroke-width:0.133333"></path>
      <path id="SvgjsPath1222" d="m 275.37532,427.57287 -44.188,3.42934 c -0.924,2.9 -1.71067,5.864 -2.376,8.86933 19.82267,-3.276 40.01467,-6.928 44.4,-8.29467 0.71467,-1.35866 1.436,-2.69333 2.164,-4.004" style="fill:#72c833;fill-opacity:1;fill-rule:nonzero;stroke:none;stroke-width:0.133333"></path>
      <path id="SvgjsPath1221" d="m 278.49932,422.16754 c 1.08667,-1.81467 2.188,-3.592 3.30533,-5.316 l -44.58,-0.25333 v -0.0773 c -1.49466,2.82534 -2.82533,5.744 -4.00133,8.744 l 45.24533,-3.51066 0.0307,0.41333" style="fill:#72c833;fill-opacity:1;fill-rule:nonzero;stroke:none;stroke-width:0.133333"></path>
      <path id="SvgjsPath1220" d="m 269.92865,438.09421 c -0.67466,0.144 -1.38133,0.29066 -2.15866,0.45066 -4.36934,0.90667 -10.45734,2.048 -18.096,3.39867 -8.48267,1.50133 -17.036,2.928 -21.98534,3.74667 -0.57866,3.49333 -1.004,7.03466 -1.276,10.60666 8.456,-2.364 28.28267,-9.70533 42.00134,-15.02 0.50133,-1.07333 1.00666,-2.132 1.51466,-3.18266" style="fill:#72c833;fill-opacity:1;fill-rule:nonzero;stroke:none;stroke-width:0.133333"></path>
      <path id="SvgjsPath1219" d="m 236.00199,540.94487 c 0.26133,2.05333 0.504,4.10667 0.70133,6.17067 0.016,0.176 0.032,0.35466 0.0467,0.532 0.67333,-2.68 1.34533,-5.492 2.02666,-8.41067 l -2.77466,1.708" style="fill:#f257ae;fill-opacity:1;fill-rule:nonzero;stroke:none;stroke-width:0.133333"></path>
      <path id="SvgjsPath1218" d="m 282.09398,384.19554 c -4.01199,-0.216 -7.56533,-0.388 -10.30799,-0.49467 -0.548,0.26534 -1.10534,0.512 -1.64667,0.78534 -2.36933,1.16266 -4.61867,2.42533 -6.77467,3.76666 4.84667,0.296 11.11067,0.79067 17.66933,1.352 0.24267,-1.72133 0.59067,-3.52266 1.06,-5.40933" style="fill:#72c833;fill-opacity:1;fill-rule:nonzero;stroke:none;stroke-width:0.133333"></path>
      <path id="SvgjsPath1217" d="m 280.60998,395.16487 c -11.44533,-0.97866 -21.75866,-1.75866 -24.58399,-1.696 -2.636,2.132 -5.07867,4.41334 -7.332,6.832 l 32.34533,0.65734 c -0.29467,-1.79734 -0.44534,-3.728 -0.42934,-5.79334" style="fill:#72c833;fill-opacity:1;fill-rule:nonzero;stroke:none;stroke-width:0.133333"></path>
      <path id="SvgjsPath1216" d="m 241.09532,529.1422 -6.12667,4.476 c 0.24267,1.556 0.47334,3.11734 0.688,4.67867 l 3.896,-2.396 c 0.50534,-2.20667 1.02,-4.464 1.54267,-6.75867" style="fill:#72c833;fill-opacity:1;fill-rule:nonzero;stroke:none;stroke-width:0.133333"></path>
      <path id="SvgjsPath1215" d="m 259.73265,462.08754 c 0.12134,-0.32933 0.248,-0.64533 0.37067,-0.96933 -12.74267,6.12 -27.68,13.456 -33.70133,16.81333 0.196,3.38533 0.49866,6.75466 0.89333,10.112 7.90267,-4.59334 22.396,-13.52133 29.82267,-18.62933 0.84266,-2.448 1.70666,-4.89334 2.61466,-7.32667" style="fill:#72c833;fill-opacity:1;fill-rule:nonzero;stroke:none;stroke-width:0.133333"></path>
      <path id="SvgjsPath1214" d="m 244.48465,514.45287 -11.36933,8.30533 c 0.28533,1.57067 0.564,3.14267 0.836,4.716 l 9.03467,-6.60266 c 0.48533,-2.09867 0.98533,-4.24134 1.49866,-6.41867" style="fill:#72c833;fill-opacity:1;fill-rule:nonzero;stroke:none;stroke-width:0.133333"></path>
      <path id="SvgjsPath1213" d="m 254.32199,477.93554 c -4.58534,2.96666 -9.86134,6.264 -14.14667,8.884 -4.32267,2.64666 -8.28267,5.00666 -11.14667,6.648 -0.33333,0.188 -0.64133,0.36533 -0.94533,0.53866 0.47867,3.32667 1.01733,6.64534 1.596,9.964 l 21.852,-16.74533 c 0.88533,-3.084 1.81467,-6.18267 2.79067,-9.28933" style="fill:#72c833;fill-opacity:1;fill-rule:nonzero;stroke:none;stroke-width:0.133333"></path>
      <path id="SvgjsPath1212" d="m 249.06999,496.11554 -18.29067,14.01466 c 0.404,2.184 0.81067,4.37067 1.21867,6.55867 l 14.51066,-10.6 c 0.81067,-3.27467 1.664,-6.60533 2.56134,-9.97333" style="fill:#72c833;fill-opacity:1;fill-rule:nonzero;stroke:none;stroke-width:0.133333"></path>
      <path id="SvgjsPath1211" d="m 282.53798,406.55154 -37.43333,-0.76133 0.0267,-1.34934 c -1.7,2.124 -3.28133,4.32934 -4.73333,6.61334 l 44.49999,0.25466 c -0.90133,-1.43866 -1.70133,-3.02133 -2.36,-4.75733" style="fill:#72c833;fill-opacity:1;fill-rule:nonzero;stroke:none;stroke-width:0.133333"></path>
      <path id="SvgjsPath1210" d="m 527.19131,449.35021 16.08534,8.016 c 0.0333,-2.22267 0.0693,-4.448 0.0987,-6.668 l -20.38133,-10.748 c 1.44933,3.172 2.84667,6.31066 4.19733,9.4" style="fill:#72c833;fill-opacity:1;fill-rule:nonzero;stroke:none;stroke-width:0.133333"></path>
      <path id="SvgjsPath1209" d="m 453.72598,339.29688 c 1.584,1.60533 3.13467,3.28533 4.644,5.044 10.94133,-2.93467 23.79733,-6.31067 32.30933,-8.30267 -2.82133,-1.18267 -5.772,-2.21733 -8.83733,-3.11733 -6.37067,1.33866 -17.2,3.81866 -28.116,6.376" style="fill:#72c833;fill-opacity:1;fill-rule:nonzero;stroke:none;stroke-width:0.133333"></path>
      <path id="SvgjsPath1208" d="m 539.05265,477.57154 4.24133,1.70933 c -0.048,-1.57466 -0.0813,-3.15066 -0.104,-4.728 l -6.79333,-3.38266 c 0.9,2.176 1.78666,4.31333 2.656,6.40133" style="fill:#f257ae;fill-opacity:1;fill-rule:nonzero;stroke:none;stroke-width:0.133333"></path>
      <path id="SvgjsPath1207" d="m 522.41398,456.71954 c -1.91467,6.276 -3.73867,12.388 -4.62133,15.57333 1.46666,1.35867 2.928,2.75467 4.388,4.18534 1.164,-2.71867 2.71866,-6.64134 4.164,-10.45867 -1.26,-3.02 -2.56934,-6.12667 -3.93067,-9.3" style="fill:#72c833;fill-opacity:1;fill-rule:nonzero;stroke:none;stroke-width:0.133333"></path>
      <path id="SvgjsPath1206" d="m 480.21531,381.81287 c -0.396,0.72934 -0.82,1.51334 -1.25733,2.32267 0.47733,2.008 0.88,4.00667 1.18533,5.984 1.06534,-1.97333 1.98267,-3.64533 2.69734,-4.93333 -0.87334,-1.14667 -1.75067,-2.26934 -2.62534,-3.37334" style="fill:#f257ae;fill-opacity:1;fill-rule:nonzero;stroke:none;stroke-width:0.133333"></path>
      <path id="SvgjsPath1205" d="m 529.64331,473.96087 c -0.0667,-0.16266 -0.13866,-0.32933 -0.204,-0.492 -1.22133,3.09067 -2.24533,5.50134 -3.06,7.20667 0.58,0.596 1.16134,1.2 1.74,1.80533 l 2.76,-5.536 c -0.408,-0.984 -0.82,-1.97733 -1.236,-2.984" style="fill:#72c833;fill-opacity:1;fill-rule:nonzero;stroke:none;stroke-width:0.133333"></path>
      <path id="SvgjsPath1204" d="m 532.18865,486.7822 c 1.78666,1.91734 3.56266,3.85467 5.32666,5.808 -1.23466,-2.788 -2.49866,-5.74533 -3.808,-8.85466 l -1.51866,3.04666" style="fill:#72c833;fill-opacity:1;fill-rule:nonzero;stroke:none;stroke-width:0.133333"></path>
      <path id="SvgjsPath1203" d="m 524.26465,386.68087 c -3.46,0 -7.21467,-0.009 -10.95867,-0.032 -7.75333,-0.0507 -13.95067,-0.156 -18.41067,-0.31333 -0.79066,-0.0293 -1.512,-0.0533 -2.2,-0.08 0.67734,0.948 1.352,1.908 2.02534,2.88133 14.412,2.936 35.18,6.848 43.92,7.756 -0.87067,-3.52666 -1.884,-6.936 -3.016,-10.24133 -2.83467,0.016 -6.844,0.0293 -11.36,0.0293" style="fill:#72c833;fill-opacity:1;fill-rule:nonzero;stroke:none;stroke-width:0.133333"></path>
      <path id="SvgjsPath1202" d="m 509.50198,428.69154 c -3.124,8.19467 -8.42,22.18 -10.708,28.76533 2.23867,1.472 4.448,2.988 6.612,4.56134 1.84933,-5.99067 5.18267,-16.98267 7.82133,-25.71334 -1.20666,-2.532 -2.44933,-5.07333 -3.72533,-7.61333" style="fill:#72c833;fill-opacity:1;fill-rule:nonzero;stroke:none;stroke-width:0.133333"></path>
      <path id="SvgjsPath1201" d="m 493.45798,400.40754 c -7.936,18.40267 -15.43733,37.37333 -16.88267,43.67467 2.39067,1.36933 4.77334,2.74 7.13467,4.12133 3.06,-11.224 11.93333,-34.14 14.368,-40.36 -1.532,-2.552 -3.07467,-5.02667 -4.62,-7.436" style="fill:#72c833;fill-opacity:1;fill-rule:nonzero;stroke:none;stroke-width:0.133333"></path>
      <path id="SvgjsPath1200" d="m 485.55665,376.79287 c 0.94133,1.17334 1.876,2.36667 2.80666,3.58534 4.55867,0.612 25.10267,0.824 45.20534,0.728 -1.16267,-2.884 -2.43334,-5.672 -3.816,-8.35334 l -44.196,4.04" style="fill:#72c833;fill-opacity:1;fill-rule:nonzero;stroke:none;stroke-width:0.133333"></path>
      <path id="SvgjsPath1199" d="m 530.20198,429.29421 c -4.66533,-1.86667 -10.42,-4.22934 -15.43733,-6.384 1.48266,2.89866 2.91866,5.79733 4.31066,8.688 l 24.35334,12.84133 c 0.0133,-3.36667 -0.012,-6.73067 -0.0973,-10.08933 -0.32933,-0.12134 -0.668,-0.244 -1.02533,-0.37467 -3.1,-1.136 -7.39867,-2.8 -12.104,-4.68133" style="fill:#72c833;fill-opacity:1;fill-rule:nonzero;stroke:none;stroke-width:0.133333"></path>
      <path id="SvgjsPath1198" d="m 468.60998,358.49154 c 1.396,1.28267 2.78267,2.612 4.16267,3.98667 l 44.47466,-7.83334 c -1.816,-1.984 -3.72533,-3.872 -5.744,-5.64666 l 0.23867,1.24133 -43.132,8.252" style="fill:#72c833;fill-opacity:1;fill-rule:nonzero;stroke:none;stroke-width:0.133333"></path>
      <path id="SvgjsPath1197" d="m 501.65665,413.98354 c -4.33067,11.23467 -11.11467,29.468 -12.97734,37.164 0.112,0.0667 0.22267,0.132 0.33467,0.19867 1.66133,0.99066 3.31867,2.00133 4.968,3.03066 3.14667,-8.89466 9.944,-26.684 12.10133,-32.316 -1.43333,-2.71066 -2.908,-5.40533 -4.42666,-8.07733" style="fill:#72c833;fill-opacity:1;fill-rule:nonzero;stroke:none;stroke-width:0.133333"></path>
      <path id="SvgjsPath1196" d="m 543.78465,488.68354 c -0.0133,-0.176 -0.0267,-0.356 -0.0427,-0.532 -0.15067,-2.06667 -0.256,-4.136 -0.34267,-6.20267 l -3.02133,-1.21733 c 1.16,2.76266 2.29467,5.42133 3.40667,7.952" style="fill:#f257ae;fill-opacity:1;fill-rule:nonzero;stroke:none;stroke-width:0.133333"></path>
      <path id="SvgjsPath1195" d="m 519.81398,450.72487 c -0.99867,-2.26533 -2.016,-4.55066 -3.06267,-6.856 -2.17466,7.17334 -5.15066,16.984 -6.63066,21.71867 1.02266,0.83333 2.04533,1.69467 3.06666,2.57467 1.67734,-5.82 4.32934,-14.46 5.36934,-17.82534 l 1.25733,0.388" style="fill:#72c833;fill-opacity:1;fill-rule:nonzero;stroke:none;stroke-width:0.133333"></path>
      <path id="SvgjsPath1194" d="m 502.04598,400.32221 c 7.46267,2.116 28.65333,8.176 39.46267,11.772 -0.44534,-3.25734 -0.98267,-6.444 -1.61467,-9.556 -8.592,-0.608 -28.90667,-4.48 -40.77467,-6.84267 0.98134,1.512 1.95334,3.06 2.92667,4.62667" style="fill:#72c833;fill-opacity:1;fill-rule:nonzero;stroke:none;stroke-width:0.133333"></path>
      <path id="SvgjsPath1193" d="m 506.77265,408.19421 c 1.30133,2.24533 2.564,4.51066 3.80533,6.78533 8.18,3.78667 23.96533,10.16 32.528,13.35867 -0.17467,-3.37467 -0.44267,-6.74667 -0.816,-10.11734 -6.50267,-2.29866 -22.45733,-7.02266 -36.04667,-10.92 0.17734,0.3 0.35334,0.592 0.52934,0.89334" style="fill:#72c833;fill-opacity:1;fill-rule:nonzero;stroke:none;stroke-width:0.133333"></path>
      <path id="SvgjsPath1192" d="m 533.14598,463.33554 10.01333,4.99067 c 0.007,-1.596 0.0173,-3.192 0.0333,-4.788 l -12.6,-6.28 c 0.872,2.06 1.72266,4.08666 2.55333,6.07733" style="fill:#72c833;fill-opacity:1;fill-rule:nonzero;stroke:none;stroke-width:0.133333"></path>
      <path id="SvgjsPath1191" d="m 477.42198,367.30621 c 1.392,1.50933 2.77333,3.07733 4.14933,4.68533 l -0.04,-0.41467 45.24,-4.13466 c -1.68933,-2.79467 -3.50533,-5.46534 -5.46666,-7.99067 l 0.0213,0.12133 -43.904,7.73334" style="fill:#72c833;fill-opacity:1;fill-rule:nonzero;stroke:none;stroke-width:0.133333"></path>
      <path id="SvgjsPath1190" d="m 439.20998,327.11688 c 0.364,0.25333 0.73067,0.512 1.09467,0.77333 l 1.53466,-0.584 c -0.88,-0.0773 -1.75466,-0.13733 -2.62933,-0.18933" style="fill:#f257ae;fill-opacity:1;fill-rule:nonzero;stroke:none;stroke-width:0.133333"></path>
      <path id="SvgjsPath1189" d="m 462.18198,349.08487 c 1.068,1.41334 2.10667,2.872 3.11867,4.37734 l 41.84533,-8.004 c -2.64933,-2 -5.44533,-3.848 -8.40533,-5.50667 -4.188,0.66934 -21.55067,5.14134 -36.55867,9.13333" style="fill:#72c833;fill-opacity:1;fill-rule:nonzero;stroke:none;stroke-width:0.133333"></path>
      <path id="SvgjsPath1188" d="m 457.14998,328.93021 c -1.064,-0.0733 -2.12933,-0.172 -3.196,-0.27867 l -8.432,3.20267 c 1.13733,0.92133 2.26267,1.87733 3.376,2.864 6.252,-1.472 13.48933,-3.16 19.98133,-4.63467 -3.76133,-0.564 -7.65866,-0.964 -11.72933,-1.15333" style="fill:#72c833;fill-opacity:1;fill-rule:nonzero;stroke:none;stroke-width:0.133333"></path>
      <path id="SvgjsPath1187" d="m 471.64731,441.25421 c 3.16,-11.53734 14.01334,-36.88534 18.148,-46.38134 -1.10266,-1.62 -2.21066,-3.20666 -3.32266,-4.756 -1.77067,3.23334 -3.64534,6.748 -5.524,10.368 -0.007,6.49334 -1.02934,12.63867 -3.10534,18.18 -2.66,7.09334 -6.804,12.356 -11.772,15.012 -0.072,0.24134 -0.128,0.468 -0.18933,0.696 1.29067,1.868 2.52267,3.75867 3.68533,5.67734 0.69334,0.40133 1.38534,0.80266 2.08,1.204" style="fill:#72c833;fill-opacity:1;fill-rule:nonzero;stroke:none;stroke-width:0.133333"></path>
      <path id="SvgjsPath1186" d="m 410.05398,637.28887 c 1.07067,3.38933 2.124,6.828 3.16667,10.28 0.10933,-4.15734 0.28133,-8.54667 0.492,-13.148 l -3.65867,2.868" style="fill:#72c833;fill-opacity:1;fill-rule:nonzero;stroke:none;stroke-width:0.133333"></path>
      <path id="SvgjsPath1185" d="m 423.14331,646.29953 c 0.084,-0.22266 0.16934,-0.44933 0.25334,-0.668 1.03466,-2.59466 2.112,-5.17333 3.204,-7.74533 l -3.00934,-3.26667 c -0.18266,4.04534 -0.33866,7.94934 -0.448,11.68" style="fill:#72c833;fill-opacity:1;fill-rule:nonzero;stroke:none;stroke-width:0.133333"></path>
      <path id="SvgjsPath1184" d="m 415.58731,594.89154 c -5.93466,6.5 -11.66533,12.86133 -14.60933,16.25866 0.97334,2.48134 1.94,5.05333 2.89334,7.70133 2.99733,-2.644 7.16,-6.51866 11.12266,-10.32799 0.21333,-4.42134 0.41467,-8.97067 0.59333,-13.632" style="fill:#72c833;fill-opacity:1;fill-rule:nonzero;stroke:none;stroke-width:0.133333"></path>
      <path id="SvgjsPath1183" d="m 416.07665,553.18487 c -8.56267,8.188 -23.12667,22.17867 -29.74133,28.89467 1.87333,3.10266 3.68666,6.23733 5.416,9.416 5.72666,-6.24 16.17333,-17.72534 24.45733,-26.85734 -0.004,-3.79066 -0.048,-7.61466 -0.132,-11.45333" style="fill:#72c833;fill-opacity:1;fill-rule:nonzero;stroke:none;stroke-width:0.133333"></path>
      <path id="SvgjsPath1182" d="m 415.74598,543.10487 c -0.17733,-4.14 -0.41467,-8.28533 -0.72,-12.42933 -11.78933,11.192 -30.612,29.488 -37.368,37.81866 1.556,2.32934 3.088,4.67067 4.59334,7.02934 9.00666,-9.03734 27.59733,-26.79734 33.49466,-32.41867" style="fill:#72c833;fill-opacity:1;fill-rule:nonzero;stroke:none;stroke-width:0.133333"></path>
      <path id="SvgjsPath1181" d="m 414.41531,620.1302 c 0.012,-0.236 0.0253,-0.48133 0.036,-0.71867 -3.29066,3.06934 -5.94399,5.42134 -7.93199,7.03467 0.36133,1.064 0.71866,2.13867 1.076,3.22 l 6.59733,-5.17867 c 0.0747,-1.43866 0.14666,-2.88533 0.22266,-4.35733" style="fill:#72c833;fill-opacity:1;fill-rule:nonzero;stroke:none;stroke-width:0.133333"></path>
      <path id="SvgjsPath1180" d="m 414.21798,521.1022 c -0.392,-4.00533 -0.83733,-7.91733 -1.33066,-11.75333 -20.35867,17.864 -40.51867,36.676 -45.936,43.532 2.116,3.04133 4.236,6.08667 6.33333,9.14933 10.256,-11.93333 34.35867,-34.75066 40.93333,-40.928" style="fill:#72c833;fill-opacity:1;fill-rule:nonzero;stroke:none;stroke-width:0.133333"></path>
      <path id="SvgjsPath1179" d="m 415.88465,586.05954 c 0.0973,-3.344 0.18133,-6.72134 0.23733,-10.14134 -6.81733,7.50534 -16.15466,17.764 -20.7,22.68267 0.79334,1.608 1.56134,3.232 2.30267,4.86667 5.42,-6.136 13.64267,-15.10934 16.856,-18.60534 l 1.304,1.19734" style="fill:#72c833;fill-opacity:1;fill-rule:nonzero;stroke:none;stroke-width:0.133333"></path>
      <path id="SvgjsPath1178" d="m 418.27398,481.93154 c 5.17867,3.38133 30.16933,15.56666 54.796,27.11733 0.25733,-4.13867 0.31733,-8.28 0.18533,-12.412 l -56.33333,-20.70533 c 0.46933,1.972 0.916,3.97333 1.352,6" style="fill:#72c833;fill-opacity:1;fill-rule:nonzero;stroke:none;stroke-width:0.133333"></path>
      <path id="SvgjsPath1177" d="m 402.58465,461.05821 c -21.38,18.58 -50.376,44.00799 -60.432,53.36933 0.81067,1.47466 1.64133,2.94666 2.49333,4.42133 15.58667,-14.688 54.29734,-42.96133 60.88,-47.74266 -0.92133,-3.44134 -1.904,-6.79067 -2.94133,-10.048" style="fill:#72c833;fill-opacity:1;fill-rule:nonzero;stroke:none;stroke-width:0.133333"></path>
      <path id="SvgjsPath1176" d="m 411.62465,500.46754 c -0.40667,-2.62134 -0.83867,-5.19867 -1.29733,-7.73734 -20.45867,14.816 -48.49734,36.9 -53.392,45.63334 0.676,1 1.356,1.99866 2.044,2.996 1.18933,1.73866 2.38666,3.476 3.58933,5.21066 10.54533,-12.244 38.48667,-36.89466 49.056,-46.10266" style="fill:#72c833;fill-opacity:1;fill-rule:nonzero;stroke:none;stroke-width:0.133333"></path>
      <path id="SvgjsPath1175" d="m 412.43398,459.61421 c 0.84,2.67733 1.63867,5.404 2.40267,8.188 l 0.208,-0.56934 57.66533,21.19467 c -0.43333,-4.35067 -1.116,-8.68933 -2.06,-13.00133 l -0.06,0.224 -58.156,-16.036" style="fill:#72c833;fill-opacity:1;fill-rule:nonzero;stroke:none;stroke-width:0.133333"></path>
      <path id="SvgjsPath1174" d="m 408.74998,484.60354 c -0.4,-1.90267 -0.81866,-3.784 -1.25066,-5.63867 -15.896,11.608 -47.62,35.40133 -58.916,46.48267 1.27733,2.07733 2.58533,4.152 3.92666,6.228 11.04,-14.13467 45.09467,-39.08 56.24,-47.072" style="fill:#72c833;fill-opacity:1;fill-rule:nonzero;stroke:none;stroke-width:0.133333"></path>
      <path id="SvgjsPath1173" d="m 399.96465,453.37421 c -1.024,-2.81467 -2.09467,-5.56134 -3.22,-8.232 -13.488,10.84933 -49.288,39.89199 -62.632,53.19066 1.36,3.06933 2.828,6.14133 4.38667,9.21067 5.04,-4.68667 13.884,-12.53334 29.45466,-26.21067 13.11867,-11.52666 26.36134,-23.048 32.01067,-27.95866" style="fill:#72c833;fill-opacity:1;fill-rule:nonzero;stroke:none;stroke-width:0.133333"></path>
      <path id="SvgjsPath1172" d="m 399.21265,427.58221 c 1.28133,2.39866 2.50933,4.86533 3.696,7.38933 l 58.77066,15.284 c -2.12533,-4.06267 -4.54,-7.93867 -7.20666,-11.632 -5.79467,-1.724 -33.50667,-7.04 -55.26,-11.04133" style="fill:#72c833;fill-opacity:1;fill-rule:nonzero;stroke:none;stroke-width:0.133333"></path>
      <path id="SvgjsPath1171" d="m 406.75932,443.73821 c 0.96666,2.38133 1.89066,4.81066 2.78266,7.28266 l 58.992,16.26534 c -0.69067,-2.28267 -1.43333,-4.55867 -2.28933,-6.82267 -0.45867,-1.22533 -0.948,-2.432 -1.456,-3.628 l -0.48534,1.86667 -57.54399,-14.964" style="fill:#72c833;fill-opacity:1;fill-rule:nonzero;stroke:none;stroke-width:0.133333"></path>
      <path id="SvgjsPath1170" d="m 423.80998,629.99553 4.21067,4.572 c 0.85066,-1.95466 1.71733,-3.90666 2.596,-5.85066 l -6.33734,-8.076 c -0.16133,3.176 -0.32133,6.29866 -0.46933,9.35466" style="fill:#72c833;fill-opacity:1;fill-rule:nonzero;stroke:none;stroke-width:0.133333"></path>
      <path id="SvgjsPath1169" d="m 425.69131,588.6622 14.94934,19.06134 c 1.33733,-2.68134 2.684,-5.35734 4.04,-8.02 l -18.664,-24.95067 c -0.068,4.71067 -0.18134,9.35467 -0.32534,13.90933" style="fill:#72c833;fill-opacity:1;fill-rule:nonzero;stroke:none;stroke-width:0.133333"></path>
      <path id="SvgjsPath1168" d="m 422.80331,492.99954 c -0.94533,-0.48934 -1.80533,-0.93734 -2.62666,-1.36667 0.276,1.54667 0.54266,3.11733 0.8,4.696 15.88133,11.92933 38.944,28.724 49.08933,34.91333 0.96933,-4.728 1.73467,-9.47866 2.288,-14.236 -6.13333,-2.87466 -16.75333,-7.87866 -27.25333,-12.94933 -9.44134,-4.55867 -16.944,-8.27867 -22.29734,-11.05733" style="fill:#72c833;fill-opacity:1;fill-rule:nonzero;stroke:none;stroke-width:0.133333"></path>
      <path id="SvgjsPath1167" d="m 440.99798,565.92087 c -4.612,-4.98533 -10.26933,-11.20667 -15.144,-16.74533 0.12933,4.39866 0.2,8.772 0.22267,13.108 l 22.328,29.85066 c 1.95733,-4.07466 3.868,-8.21866 5.704,-12.42266 -0.336,-0.336 -0.68,-0.68267 -1.048,-1.05734 -3.12534,-3.184 -7.408,-7.708 -12.06267,-12.73333" style="fill:#72c833;fill-opacity:1;fill-rule:nonzero;stroke:none;stroke-width:0.133333"></path>
      <path id="SvgjsPath1166" d="m 424.85131,609.19154 9.30934,11.86666 c 0.92133,-1.95467 1.85733,-3.90667 2.79866,-5.85067 l -11.70266,-14.91999 c -0.12934,3.02266 -0.264,5.99066 -0.40534,8.904" style="fill:#72c833;fill-opacity:1;fill-rule:nonzero;stroke:none;stroke-width:0.133333"></path>
      <path id="SvgjsPath1165" d="m 423.42865,514.2302 c 7.89333,6.91734 30.24,26.59334 41.34666,37.25067 1.312,-4.17733 2.504,-8.388 3.55467,-12.616 -10.14267,-5.728 -32.688,-22.22533 -45.80267,-31.992 0.32,2.42133 0.62267,4.86667 0.90134,7.35733" style="fill:#72c833;fill-opacity:1;fill-rule:nonzero;stroke:none;stroke-width:0.133333"></path>
      <path id="SvgjsPath1164" d="m 424.62598,526.57154 c 0.29067,3.49866 0.51733,6.99733 0.71067,10.492 7.78133,9.356 23.332,26.25466 31.93866,35.13866 1.72134,-4.22533 3.35067,-8.50133 4.86934,-12.82 -6.62,-6.59466 -23.332,-21.58666 -37.64267,-34.20266 0.04,0.46666 0.0867,0.924 0.124,1.392" style="fill:#72c833;fill-opacity:1;fill-rule:nonzero;stroke:none;stroke-width:0.133333"></path>
      <path id="SvgjsPath1163" d="m 393.55132,438.06354 c -1.03867,-2.168 -2.10534,-4.296 -3.216,-6.36 -21.81867,16.19733 -52.236,39.62933 -62.60934,49.668 0.96667,3.16133 2.06667,6.328 3.28934,9.49733 15.84666,-15.15066 50.91333,-43.48533 62.536,-52.80533" style="fill:#72c833;fill-opacity:1;fill-rule:nonzero;stroke:none;stroke-width:0.133333"></path>
      <path id="SvgjsPath1162" d="m 386.57132,425.13954 c -2.12667,-3.48933 -4.368,-6.8 -6.728,-9.95067 -24,19.24267 -48.688,39.996 -56.14934,47.71734 0.43067,3.43466 1.052,6.88133 1.84934,10.34 15.31733,-13.95467 47.97866,-38.43467 61.028,-48.10667" style="fill:#72c833;fill-opacity:1;fill-rule:nonzero;stroke:none;stroke-width:0.133333"></path>
      <path id="SvgjsPath1161" d="m 347.87532,431.61421 c 4.45466,-3.70934 8.90533,-7.37334 12.99866,-10.71867 -6.88933,2.58267 -14.31733,4.52933 -21.78,5.68267 -6.21066,5.512 -11.656,10.65733 -15.364,14.69866 -0.54266,3.92534 -0.772,7.87467 -0.71733,11.85067 4.85733,-4.52533 12.556,-11.26133 24.86267,-21.51333" style="fill:#72c833;fill-opacity:1;fill-rule:nonzero;stroke:none;stroke-width:0.133333"></path>
      <path id="SvgjsPath1160" d="m 423.51931,409.20887 c -4.34666,-2.964 -8.84533,-5.70133 -13.43466,-8.22266 -4.70933,-0.91734 -9.944,-0.50667 -15.91467,1.80666 8.95467,1.92134 19.75867,4.26667 29.34933,6.416" style="fill:#f257ae;fill-opacity:1;fill-rule:nonzero;stroke:none;stroke-width:0.133333"></path>
      <path id="SvgjsPath1159" d="m 387.45398,409.03954 c 2.38934,3.18933 4.68267,6.512 6.852,10.00267 15.53334,2.82133 36.508,6.716 50.348,9.65333 -2.83733,-2.552 -5.57867,-5.54 -8.29067,-8.5 -0.12933,-0.14133 -0.26,-0.284 -0.38933,-0.424 -11.35867,-2.68933 -31.06533,-7 -48.52,-10.732" style="fill:#72c833;fill-opacity:1;fill-rule:nonzero;stroke:none;stroke-width:0.133333"></path>
      <path id="SvgjsPath1158" d="m 442.94331,296.27154 -16.28266,3.828 c 17.29333,1.07067 35.68666,8.3 53.75066,15.41467 6.124,2.412 12.29734,4.844 18.48534,7.084 -1.69467,-1.184 -3.38267,-2.37733 -5.064,-3.576 l -50.88934,-22.75067" style="fill:#f257ae;fill-opacity:1;fill-rule:nonzero;stroke:none;stroke-width:0.133333"></path>
      <path id="SvgjsPath1157" d="m 498.79665,274.22354 c 5.44266,1.38267 10.76533,3.13334 15.95866,5.15734 l -59.42266,13.97466 c 11.23466,3.57867 22.02666,10.58134 31.44666,16.128 11.72534,7.06667 23.60267,15.16267 36.32134,20.43067 13.94533,3.136 27.80533,3.93467 41.27999,0.009 l 7.89734,-2.296 c 19.81066,-5.75466 30.72133,-8.924 35.364,-11.5 2.248,-1.248 2.248,-1.248 2.13866,-6.06266 -0.004,-0.13334 -0.005,-0.28267 -0.008,-0.42267 -0.44666,-0.12267 -0.89733,-0.252 -1.368,-0.38133 -2.15333,-0.68534 -4.17333,-1.492 -6.16666,-2.32 -9.288,-3.97334 -18.36267,-8.296 -27.916,-11.44934 l -7.75334,-2.24666 c 8.44934,1.13333 16.752,3.42933 24.90534,5.96133 6.08933,1.752 12.10266,4.20267 18.30266,5.33333 0.0853,-2.46933 0.31067,-5.34133 0.87867,-8.71333 1.63067,-9.71867 -1.48,-20.56533 -8.76267,-30.53467 -7.5,-10.26933 -26.14666,-28.36533 -66.73066,-34.18933 -51.23467,-7.34667 -112.66533,22.02 -133.52933,60.16 4.40533,-2.948 9.06,-5.532 13.78133,-7.88533 25.76533,-12.51067 55.652,-16.06134 83.38267,-9.15334" style="fill:#f257ae;fill-opacity:1;fill-rule:nonzero;stroke:none;stroke-width:0.133333"></path>
      <path id="SvgjsPath1156" d="m 389.81398,308.16088 c 0.69467,0.0867 1.412,0.18533 2.14534,0.292 -0.0987,-0.072 -0.0987,-0.0733 -0.196,-0.14667 v 0 0 c -0.9,-0.67333 -1.00667,-0.756 -1.8,-1.348 l -0.0947,-0.02 v 0 l -0.0547,1.22267" style="fill:#f257ae;fill-opacity:1;fill-rule:nonzero;stroke:none;stroke-width:0.133333"></path>
      <path id="SvgjsPath1155" d="m 493.83265,319.02221 c -3.04267,-2.16667 -6.06534,-4.336 -9.09734,-6.44533 -10.15466,-7.024 -20.368,-14.5 -32.028,-18.60134 l -9.764,2.296 50.88934,22.75067" style="fill:#f257ae;fill-opacity:1;fill-rule:nonzero;stroke:none;stroke-width:0.133333"></path>
      <path id="SvgjsPath1154" d="M 391.76332,308.30621 Z" style="fill:#f257ae;fill-opacity:1;fill-rule:nonzero;stroke:none;stroke-width:0.133333"></path>
      <path id="SvgjsPath1153" d="m 452.70731,293.97554 2.62534,-0.62 59.42266,-13.97466 c -5.37066,-1.51334 -10.79866,-2.728 -16.272,-3.56667 -32.204,-4.77733 -66.4,4.532 -91.29599,25.40133 -1.68934,1.452 -3.36534,3.004 -4.95334,4.62934 l 24.42667,-5.74534 16.28266,-3.828 9.764,-2.296" style="fill:#f257ae;fill-opacity:1;fill-rule:nonzero;stroke:none;stroke-width:0.133333"></path>
      <path id="SvgjsPath1152" d="m 574.32198,295.49154 c -2.548,-0.84 -5.12534,-1.60133 -7.75334,-2.24666 l 7.75334,2.24666" style="fill:#f257ae;fill-opacity:1;fill-rule:nonzero;stroke:none;stroke-width:0.133333"></path>
      <path id="SvgjsPath1151" d="M 615.30198,307.37021 Z" style="fill:#f257ae;fill-opacity:1;fill-rule:nonzero;stroke:none;stroke-width:0.133333"></path>
      <path id="SvgjsPath1150" d="m 417.32465,368.05421 c 0.0333,8.26666 -0.94667,16.53733 -2.668,24.564 12.276,3.56266 21.39066,13.51066 28.53866,21.316 7.96267,8.692 13.08267,13.91466 17.86934,11.88533 3.124,-1.32667 6.15466,-5.21733 8.09866,-10.408 2.228,-5.948 6.18534,-22.31333 -5.192,-45.716 -16.776,-34.508 -49.61733,-47.58266 -69.48666,-51.51066 15.16133,11.416 22.89866,30.51466 22.84,49.86933" style="fill:#f257ae;fill-opacity:1;fill-rule:nonzero;stroke:none;stroke-width:0.133333"></path>
      <path id="SvgjsPath1149" d="m 414.72065,368.20087 c -1.42933,-14.98133 -7.55467,-30.39199 -19.34533,-39.98133 -3.76934,-3.14266 -8.02934,-5.684 -12.56667,-7.42666 0,0 -5.12,-0.65734 -7.11333,-1.61067 -5.48,5.748 -10.44,12.16133 -15.092,18.58267 -10.15067,14.13199 -19.048,29.46933 -26.576,45.20799 -3.816,7.79467 -7.32667,16.27334 -10.57334,24.31467 1.10667,-4.28533 2.13334,-8.608 3.31467,-12.89333 5.99733,-21.568 13.936,-42.61334 24.36933,-62.47067 2.30534,-4.38133 4.748,-8.74133 7.352,-12.99466 -8.48133,-2.55067 -16.41066,-2.42934 -23.672,0.39866 -23.96,9.33467 -36.504,45.604 -41.228,59.256 -0.33866,0.98133 -0.644,1.86667 -0.91733,2.63467 -4.97867,14.05333 -3.252,24.33333 5.14,30.552 17.61333,13.052 57.30533,6.08666 77.44,-8.77467 11.50667,-8.492 21.41067,-11.72533 29.99067,-11.72533 3.2,0 6.21466,0.44933 9.06399,1.24533 0.972,-8.10133 1.18534,-16.248 0.41334,-24.31467" style="fill:#f257ae;fill-opacity:1;fill-rule:nonzero;stroke:none;stroke-width:0.133333"></path>
      <path id="SvgjsPath1148" d="m 363.33532,123.55421 c 5.24,-5.38933 9.672,-11.552 13.36266,-18.144 2.05734,-3.712 3.89067,-7.569331 5.47334,-11.529331 1.2,-3.006666 2.25866,-6.068 3.14666,-9.181333 2.11334,-7.417333 3.28934,-15.097333 3.27867,-22.833333 -0.1,-6.077333 -1.092,-17.966665 -6.95333,-21.205332 6.33333,7.393333 0.56133,33.079999 -2.04134,42.151999 -0.328,1.181333 -0.69066,2.345333 -1.048,3.512 -1.028,3.381333 -2.164,6.714666 -3.388,10.010666 -3.43466,9.228004 -7.532,18.197334 -11.83066,27.218664" style="fill:#f257ae;fill-opacity:1;fill-rule:nonzero;stroke:none;stroke-width:0.133333"></path>
      <path id="SvgjsPath1147" d="m 337.02598,183.69821 c 2.352,1.73467 4.928,3.31867 7.75867,4.05334 -4.20267,-3.68934 -7.42133,-8.28 -10.46533,-12.89867 -2.97067,-4.59867 -5.56,-9.39333 -7.70934,-14.33067 -2.996,-6.87866 -5.008,-13.94266 -5.29333,-21.268 -0.136,-3.42666 0.10933,-6.912 0.812,-10.46 -3.72267,5.48934 -5.16133,11.76934 -4.908,18.16534 0.55467,14.05466 9.26267,28.67466 19.80533,36.73866" style="fill:#f257ae;fill-opacity:1;fill-rule:nonzero;stroke:none;stroke-width:0.133333"></path>
      <path id="SvgjsPath1146" d="m 388.69132,211.09955 c -2.74534,-5.69867 -4.83467,-11.35334 -6.26134,-17.19734 -2.85333,-11.644 -3.71466,-23.71066 -2.76533,-35.66 0.69867,-5.88666 1.128,-12.28533 4.71467,-17.24133 -5.55734,3.31467 -7.8,10.57333 -9.364,16.488 -2.80667,12.544 -1.86534,25.952 2.928,37.89733 2.41733,5.948 5.988,11.52667 10.748,15.71334" style="fill:#f257ae;fill-opacity:1;fill-rule:nonzero;stroke:none;stroke-width:0.133333"></path>
      <path id="SvgjsPath1145" d="m 275.33132,187.37021 c 0.007,0.63334 0.136,1.40667 0.38933,2.288 2.10667,7.372 13.788,24.18667 33.15867,34.784 -19.82134,-15.46133 -30.136,-30.04133 -33.548,-37.072" style="fill:#f257ae;fill-opacity:1;fill-rule:nonzero;stroke:none;stroke-width:0.133333"></path>
      <path id="SvgjsPath1144" d="m 448.51798,113.58888 c 0.1,22.91733 -8.41733,60.57333 -15.196,84.19067 8.44933,-19.08934 20.75867,-70.38534 15.196,-84.19067" style="fill:#f257ae;fill-opacity:1;fill-rule:nonzero;stroke:none;stroke-width:0.133333"></path>
      <path id="SvgjsPath1143" d="m 528.39798,489.95954 1.51867,-3.04534 c 1.30666,3.108 2.57333,6.06667 3.808,8.85334 -1.76534,-1.95334 -3.54,-3.888 -5.32667,-5.808 z m -9.77467,-30.06133 c 1.36134,3.17333 2.67067,6.28 3.93067,9.3 -1.444,3.816 -3,7.73733 -4.164,10.45733 -1.46,-1.42933 -2.92133,-2.82667 -4.388,-4.184 0.884,-3.18533 2.70667,-9.29867 4.62133,-15.57333 z m -5.66533,-12.848 c 1.04933,2.30266 2.06667,4.588 3.06267,6.852 l -1.25334,-0.38667 c -1.04133,3.364 -3.696,12.00533 -5.37066,17.82667 -1.02134,-0.88134 -2.044,-1.744 -3.06534,-2.57734 1.476,-4.73333 4.456,-14.544 6.62667,-21.71466 z m -17.95467,13.58533 c 2.28534,-6.58667 7.584,-20.572 10.70934,-28.76667 1.276,2.54134 2.51466,5.08134 3.72266,7.61334 -2.63733,8.732 -5.97066,19.724 -7.82,25.71333 -2.164,-1.572 -4.37333,-3.08933 -6.612,-4.56 z m -10.11466,-6.31067 c 1.86,-7.696 8.644,-25.928 12.97733,-37.164 1.52,2.67334 2.99333,5.368 4.42533,8.076 -2.15866,5.63334 -8.95333,23.42267 -12.1,32.31734 -1.64933,-1.028 -3.308,-2.03867 -4.968,-3.03067 -0.112,-0.0667 -0.22266,-0.13067 -0.33466,-0.19867 z M 419.60598,648.8102 c -0.084,0.21733 -0.168,0.44533 -0.25333,0.668 0.10933,-3.73067 0.26266,-7.63467 0.448,-11.68133 l 3.00933,3.26666 c -1.09333,2.57334 -2.16933,5.15067 -3.204,7.74667 z m -9.68666,-11.212 c -0.208,4.60267 -0.38,8.98933 -0.48934,13.14933 -1.04266,-3.45466 -2.096,-6.89066 -3.16666,-10.28 z m -27.37334,-52.34 c 6.61467,-6.72 21.17734,-20.70933 29.73867,-28.896 0.0853,3.84134 0.12933,7.664 0.132,11.45334 -8.28267,9.13066 -18.72933,20.61733 -24.45733,26.85733 -1.72934,-3.17733 -3.54134,-6.31333 -5.41334,-9.41467 z m 28.68934,-51.404 c 0.304,4.144 0.54133,8.28934 0.72,12.428 -5.89734,5.62134 -24.49067,23.38134 -33.49467,32.42 -1.50533,-2.35866 -3.03867,-4.70266 -4.59333,-7.02933 6.75333,-8.33067 25.57866,-26.62933 37.368,-37.81867 z m -2.13867,-21.328 c 0.49333,3.83734 0.93867,7.752 1.32933,11.756 -6.57333,6.176 -30.67733,28.99334 -40.93066,40.92534 -2.10134,-3.06134 -4.21867,-6.10934 -6.33334,-9.148 5.416,-6.85734 25.57467,-25.66667 45.93467,-43.53334 z m -2.56,-16.61733 c 0.45733,2.53733 0.89067,5.11467 1.296,7.736 -10.56667,9.20933 -38.508,33.85733 -49.05467,46.10533 -1.20133,-1.73733 -2.40133,-3.47466 -3.58933,-5.21466 -0.688,-0.99734 -1.36933,-1.99467 -2.044,-2.99467 4.89467,-8.73333 32.932,-30.81733 53.392,-45.632 z m -2.828,-13.76533 c 0.432,1.85466 0.848,3.73333 1.24933,5.64 -11.14666,7.99066 -45.20133,32.93466 -56.24,47.068 -1.33866,-2.07067 -2.648,-4.14934 -3.92666,-6.22667 11.29733,-11.08 43.01866,-34.87467 58.91733,-46.48133 z m -97.444,1.22533 c -5.02667,-12.284 -24.268,-36.88266 -30.59333,-44.80133 0.668,-1.27867 1.344,-2.532 2.02267,-3.76533 7.76799,9.89866 22.13199,28.65866 29.64799,40.12933 0.33334,1.92533 0.71734,3.83733 1.14667,5.732 0.044,0.2 0.096,0.39466 0.14267,0.59333 -0.78667,0.708 -1.57467,1.412 -2.36667,2.112 z m -6.544,5.60533 c -1.19333,1 -2.39733,1.99734 -3.60267,2.99467 -5.04933,-10.84133 -20.00799,-34.01733 -25.67733,-42.68266 0.81467,-1.78667 1.64134,-3.53467 2.476,-5.24934 11.592,14.652 27.11867,35.99734 28.86,43.20667 -0.684,0.57733 -1.36667,1.15466 -2.056,1.73066 z m -14.33467,11.85334 c -4.904,-10.55467 -17.49333,-31.65067 -20.93333,-37.36933 1.08134,-2.772 2.184,-5.46934 3.30667,-8.104 10.91467,16.81333 21.49466,34.26266 23.97333,40.22666 -2.11733,1.74133 -4.23733,3.488 -6.34667,5.24667 z m -9.09333,7.81066 c -4.596,-8.24266 -14.27466,-24.63066 -17.34533,-29.81999 0.95733,-2.91067 1.96,-5.81467 3.00667,-8.70534 6.15333,10.34 15.88666,27.156 19.01999,34.44 -1.57466,1.348 -3.13599,2.70533 -4.68133,4.08533 z m -9.968,9.468 c -2.82533,-5.58933 -7.96133,-15.87333 -12.02933,-24.044 0.76267,-2.69866 1.56267,-5.41466 2.39333,-8.13333 4.45334,7.55333 12.02134,20.448 15.38267,26.556 -1.95867,1.836 -3.87733,3.70533 -5.74667,5.62133 z m -6.65466,7.33334 c -2.62934,-5.45867 -6.68934,-13.51334 -8.27467,-16.65067 l -1.172,0.592 c 0.60267,-2.4 1.22,-4.82267 1.86933,-7.27067 3.35067,6.71867 7.94534,15.912 10.192,20.32267 -0.88533,0.99067 -1.75866,1.99067 -2.61466,3.00667 z m -7.47067,9.70933 c -1.604,-2.484 -3.79067,-6.08133 -5.85067,-9.59333 0.73734,-3.19067 1.50534,-6.47067 2.31467,-9.82667 2.932,5.844 5.74533,11.54133 7.152,14.53867 -1.19733,1.57066 -2.40267,3.19066 -3.616,4.88133 z m -12.42267,18.55333 c 0.75467,-2.98133 1.512,-6.13466 2.288,-9.448 l 2.02534,2.77467 c -1.44267,2.196 -2.88134,4.42267 -4.31334,6.67333 z m -12.38133,-119.52133 44.18933,-3.42933 c -0.728,1.31067 -1.45066,2.64533 -2.16666,4.00133 -4.38267,1.36934 -24.57467,5.02134 -44.39734,8.29734 0.66667,-3.00667 1.45067,-5.97067 2.37467,-8.86934 z m 31.88267,22.52934 c -7.00267,3.34133 -26.89867,12.88133 -36.94534,18.24 -0.11733,-3.23867 -0.12666,-6.47334 -0.0227,-9.696 8.348,-2.028 27.756,-9.26534 39.07733,-13.59467 -0.712,1.65733 -1.41333,3.34267 -2.10933,5.05067 z m -20.08267,67.33999 -9.03467,6.60134 c -0.272,-1.57467 -0.552,-3.144 -0.83733,-4.71467 l 11.37067,-8.30667 c -0.51334,2.17867 -1.01334,4.32 -1.49867,6.42 z m -6.28133,26.244 c -0.19867,-2.06533 -0.44134,-4.12 -0.70134,-6.172 l 2.77467,-1.70666 c -0.68267,2.91866 -1.356,5.72933 -2.02667,8.40933 -0.016,-0.176 -0.032,-0.35467 -0.0467,-0.53067 z m 2.84533,-11.216 -3.89333,2.39734 c -0.21467,-1.564 -0.44667,-3.12267 -0.68934,-4.68 l 6.12667,-4.47467 c -0.52133,2.29733 -1.036,4.55067 -1.544,6.75733 z m 20.18133,-73.81466 c -0.90666,2.436 -1.77333,4.88133 -2.612,7.328 -7.42933,5.10933 -21.92,14.03866 -29.82666,18.63066 -0.392,-3.35733 -0.69467,-6.728 -0.892,-10.11066 6.024,-3.36 20.96,-10.696 33.7,-16.816 -0.12267,0.32533 -0.24667,0.64133 -0.36934,0.968 z m 8.68267,-20.808 c -13.71733,5.31333 -33.54533,12.656 -42.00267,15.02 0.27334,-3.57333 0.69867,-7.11333 1.27734,-10.608 4.94933,-0.816 13.50266,-2.24533 21.98533,-3.74667 7.63733,-1.352 13.72533,-2.49333 18.096,-3.39866 0.776,-0.16 1.484,-0.30667 2.15867,-0.44934 -0.50934,1.04934 -1.01334,2.11067 -1.51467,3.18267 z m -40.33333,52.72933 c 0.30533,-0.17467 0.61466,-0.35067 0.94666,-0.54133 2.86667,-1.64 6.824,-4 11.14934,-6.64667 4.28133,-2.62267 9.56,-5.916 14.14533,-8.88267 -0.976,3.10667 -1.90667,6.20667 -2.79333,9.28934 l -21.85067,16.74266 c -0.57733,-3.31466 -1.11733,-6.63466 -1.59733,-9.96133 z m 2.7,16.12267 18.28933,-14.01467 c -0.896,3.36933 -1.75067,6.69867 -2.56,9.972 l -14.51333,10.60133 c -0.408,-2.18666 -0.81334,-4.37466 -1.216,-6.55866 z m 20.38133,28.78533 -3.65733,-5.00667 c 0.236,-1.03866 0.47466,-2.08533 0.71733,-3.15066 0.0387,-0.16934 0.0773,-0.34667 0.11867,-0.51734 1.72666,2.84667 3.14533,5.05734 4.23733,6.60534 -0.472,0.68666 -0.94133,1.37066 -1.416,2.06933 z m -13.936,-122.39466 v 0.0773 l 44.57867,0.25467 c -1.12,1.724 -2.21734,3.50133 -3.304,5.316 l -0.032,-0.41467 -45.248,3.512 c 1.17866,-3 2.51066,-5.91867 4.00533,-8.74533 z m 7.90533,-12.08 -0.0267,1.35066 37.43333,0.764 c 0.65867,1.73467 1.45866,3.31467 2.35866,4.75334 l -44.49733,-0.25334 c 1.45067,-2.28533 3.032,-4.48933 4.732,-6.61466 z m -51.64666,-9.27467 c -24.468,-0.868 -36.788,-2.11333 -42.52267,-4.29867 -1.884,-0.72 -2.824,-1.29066 -3.44266,-2.58266 2.81466,-1.26 5.32266,-3.00667 7.50799,-4.93467 8.10134,-7.44533 13.41467,-17.18267 19.60134,-25.94533 7.892,-11.56267 17.68666,-22.90667 31.724,-26.69733 -30.17867,6.18666 -40.656,43.70933 -60.08533,52.18266 -0.001,-0.0213 -0.005,-0.0413 -0.008,-0.0667 -0.63734,-3.948 -1.51067,-9.35466 -4.412,-15.94933 -3.97067,-9.024 -3.6164,-20.29867 0.99733,-31.752 4.75067,-11.79733 18.384,-33.916 56.30133,-49.52266 15.33333,-6.31067 32.60533,-9.22667 49.976,-9.22667 26.168,0 52.55066,6.62133 72.852,18.208 -5.528,-1.52 -11.10134,-2.84133 -16.716,-3.93733 -31.412,-5.98534 -64.56133,-5.564 -94.95067,4.74 -15.064,5.11066 -29.276,13.00533 -40.74666,23.83333 12.19466,-10.01067 26.67066,-16.75333 41.696,-20.73333 35.956,-9.32667 74.16933,-5.44534 108.96399,7.04 -20.072,-2.86667 -40.84266,-0.80267 -59.82133,6.072 -10.57866,3.85066 -20.528,9.24266 -29.62133,15.796 9.588,-5.588 19.86933,-9.93867 30.584,-12.69867 20.03867,-5.168 41.37733,-4.81467 61.17066,0.716 -7.56266,5.07067 -13.85066,12.21467 -19.02533,19.95333 -10.496,6.25067 -20.84266,14.188 -31.06933,22.04267 -6.088,4.676 -12.23067,9.392 -18.45333,13.82933 -0.516,0.292 -1.03467,0.57467 -1.54934,0.86933 -0.93733,0.532 -1.864,1.084 -2.79466,1.632 11.98,-13.55066 22.86,-27.96933 36.17733,-40.19999 7.58533,-6.77467 16.40666,-13.284 26.93333,-13.88534 -5.20667,-0.0347 -10.364,1.504 -15.044,3.828 -4.68533,2.35867 -9.00267,5.38267 -13.08933,8.64534 -16.15467,13.13733 -29.392,29.49466 -44.39467,43.71599 -4.59466,4.32934 -9.41333,8.63734 -14.588,12.30667 -10.37066,4.64667 -21.04933,7.41467 -32.15066,7.02 z m 115.39466,-170.724 c -19.37067,-10.596 -31.05333,-27.41199 -33.16,-34.78399 -0.252,-0.88134 -0.38133,-1.65467 -0.39066,-2.28667 3.41466,7.03067 13.73066,21.61067 33.55066,37.07066 z m -118.19466,5.56934 c -10.96267,-12.23467 -19.55734,-20.94933 -25.828,-27.31467 -3.07334,-3.11466 -5.77867,-5.86133 -7.91734,-8.17866 27.19867,1.84 61.55467,-9.88 86.212,4.09333 -20.53733,-13.296 -50.75333,-7.82133 -74.11866,-8.20933 -5.40534,-0.104 -11.32667,-0.22 -16.65467,-1.624 -0.24,-0.44934 -0.404,-0.852 -0.46533,-1.19067 -0.26667,-1.50933 3.268,-5.588 7.36133,-10.30667 0.68133,-0.784 1.39867,-1.61066 2.15067,-2.48533 8.86133,-10.29333 29.87333,-23.78933 59.996,-23.78933 14.43066,0 30.95733,3.10133 49.23333,11.13333 41.536,18.25733 76.07333,69.80133 81.08266,112.708 -6.00133,-15.78267 -13.292,-31.74134 -25.00266,-43.812 -5.27467,-7.46134 -12.88667,-17.01334 -21.96,-24.86133 -3.53867,-4.02934 -7.244,-7.91067 -11.144,-11.6 -3.58534,-3.34534 -7.304,-6.56134 -11.52,-9.34934 -2.35333,-1.45866 -4.70267,-2.984 -7.604,-3.30533 -2.65733,-0.336 -4.54133,1.82667 -4.716,4.232 -0.26667,4.46667 2.14533,8.144 4.40133,11.48667 0.392,0.52133 0.80134,1.03066 1.20667,1.54133 9.85733,20.55066 31.57066,29.42 48.264,37.916 6.316,7.21733 11.09066,15.39866 15.072,24.032 -11.676,-15.516 -26.98667,-28.29467 -44.33467,-36.82534 -10.11067,-4.95333 -20.89333,-8.38533 -31.924,-10.39066 10.676,3.03466 20.94267,7.42533 30.36,13.232 18.54667,11.424 33.692,28.12666 43.40933,47.44133 2.59467,5.31867 4.968,10.884 6.62267,16.60267 -15.78267,-18.45467 -44.248,-23.69067 -71.992,-28.79067 -5.86133,-1.07733 -11.76133,-2.16267 -17.60266,-3.368 15.212,-0.808 30.49466,-2.58 45.57333,-1.26667 9.352,0.83067 19.02533,3.22934 26.052,9.848 -3.26,-3.49866 -7.416,-6.13333 -11.86534,-7.97866 -13.496,-5.34534 -28.46133,-5.15867 -42.70799,-5.38134 -14.452,-0.20933 -29.644,0.46534 -43.88667,-2.252 -13.85467,-4.76 -26.31867,-11.46133 -35.75333,-21.98666 z m 121.93999,-65.32 c 0.26934,-3.89067 1.03334,-7.70533 2.19334,-11.40933 4.52533,26.188 23.244,46.21466 36.05333,63.51199 0.49867,4.01067 1.02,8 1.54133,11.95334 0.472,3.584 0.984,7.17733 1.492,10.776 -8.48933,-21.57734 -22.164,-42.68933 -39.01066,-59.548 -1.78134,-4.86133 -2.60534,-10.048 -2.26934,-15.284 z m 9.50267,-35.896 c -0.704,3.54667 -0.94667,7.032 -0.812,10.46 0.284,7.324 2.3,14.388 5.29333,21.26667 2.15067,4.93733 4.74,9.732 7.70934,14.332 3.04666,4.61733 6.264,9.208 10.46533,12.9 -2.82933,-0.736 -5.40533,-2.32 -7.75733,-4.05467 -10.54267,-8.064 -19.252,-22.68533 -19.80667,-36.73867 -0.252,-6.396 1.18667,-12.67466 4.908,-18.16533 z m 18.57067,-11.12667 c 4.8,-3.61466 9.736,-7.156 14.792,-10.45466 -0.196,1.288 -0.38267,2.57733 -0.56267,3.864 -2.44133,11.73466 -3.63733,22.82666 -4.21867,31.19066 -2.08533,10.16934 -2.93466,20.55467 -2.99066,31.00134 -0.996,-2.65734 -2.10667,-5.29334 -3.34267,-7.87734 -1.484,-3.09733 -2.97333,-6.23333 -4.45467,-9.328 -3.08,-8.94933 -6.732,-17.66933 -11.72666,-25.84 -0.0533,-0.0733 -0.10667,-0.152 -0.15867,-0.22666 3.848,-4.57334 8.16933,-8.72134 12.66267,-12.32934 z m 47.89866,-55.80133 c 0.0107,7.736 -1.16533,15.414666 -3.28,22.833333 -0.88666,3.112 -1.94533,6.174666 -3.14666,9.181333 -1.584,3.960004 -3.41467,7.816004 -5.472,11.529334 -3.68934,6.592 -8.12267,12.75333 -13.36267,18.144 4.296,-9.02133 8.39733,-17.99067 11.828,-27.220001 1.228,-3.294666 2.36267,-6.629333 3.392,-10.009333 0.356,-1.166667 0.71733,-2.332 1.04667,-3.512 2.60266,-9.073333 8.37466,-34.758666 2.04133,-42.151998 5.86,3.237333 6.85333,15.126666 6.95333,21.205332 z m 9.86267,38.256 c 1.73067,4.196 3.95733,8.25467 6.33067,12.07333 6.90266,10.68267 14.30266,20.26134 19.07466,31.09067 -1.35733,5.86933 -2.04133,11.81467 -2.252,17.756 -9.91066,8.352 -19.10533,18.54933 -27.08133,29.94667 0.096,-3.456 0.12933,-6.912 0.0853,-10.37334 -0.0747,-8.784 -1.628,-60.38533 -18.62266,-47.344 -4.49334,4.73867 -6.03734,12.68934 -5.98,21.53067 -4.836,21.696 2.616,42.652 9.99733,61.152 -1.604,3.384 -3.10533,6.816 -4.47867,10.29466 -10.08533,25.55867 -12.68533,50.43734 -7.756,70.87734 -1.256,3.19066 -2.548,6.36933 -3.816,9.556 -0.752,-1.57334 -1.472,-3.172 -2.15066,-4.79334 2.056,-9.876 2.10266,-20.684 0.44133,-31.864 0.0227,0 0.044,0 0.044,0 -0.0413,-3.84133 -0.24267,-7.652 -0.53333,-11.44666 0.83866,-17.81067 -0.028,-35.54934 -5.83734,-52.15333 -1.98,-20.85867 -2.71333,-42.06267 1.67067,-62.26934 9.30933,-14.788 21.972,-32.004 29.66533,-51.169331 0.964,-0.08267 1.92134,-0.116 2.86934,-0.07867 4.80666,0.336 6.812,2.98 8.32933,7.214671 z m 100.46933,41.452 c 6.64667,0 12.04133,0.868 16.02133,1.85733 11.98267,2.97467 21.328,9.29467 26.312,17.8 3.21734,5.49467 6.25067,8.956 8.46667,11.48134 0.616,0.70533 1.112,1.27066 1.50533,1.74533 -18.424,10.344 -54.488,-2.844 -77.08,17.844 11.29467,-9.152 26.232,-10.44 40.22534,-10.05867 10.724,0.12534 21.72666,1.524 32.508,-0.67733 1.47866,-0.33333 2.96533,-0.768 4.42933,-1.32267 -2.48,5.27334 -8.64933,14.464 -19.08667,30.00267 l -4.584,6.83066 c -0.46,0.68 -0.928,1.34934 -1.412,2.008 -27.15866,-1.41866 -57.94666,5.872 -84.40933,20.27467 -11.47067,6.24 -21.53467,13.44667 -29.952,21.30933 6.94133,-10.70666 13.18933,-21.85333 17.77333,-33.748 4.036,-3.30666 8.288,-6.34133 12.73734,-9.06533 4.73733,-2.87067 9.68133,-5.42267 14.76933,-7.70533 -5.28267,1.78 -10.48667,3.85066 -15.54933,6.28266 -3.492,1.69734 -6.88534,3.57334 -10.18134,5.60667 0.63734,-1.87733 1.22934,-3.77467 1.77867,-5.692 3.15733,-7.95066 7.136,-19.17466 10.136,-31.676 2.31333,-7.45333 4.36,-14.99466 6.084,-22.62 0.40533,-1.84666 0.932,-4.33333 1.496,-7.23733 19.56133,-10.34267 35.87867,-13.24 48.012,-13.24 z m 102.96533,123.716 c 7.28267,9.97066 10.39333,20.816 8.76133,30.53466 -0.568,3.372 -0.79866,6.24534 -0.87733,8.71467 -6.20267,-1.132 -12.21333,-3.58133 -18.304,-5.33333 -8.15333,-2.53334 -16.456,-4.828 -24.90533,-5.96267 2.62533,0.64533 5.20533,1.408 7.75333,2.248 9.55067,3.15333 18.62933,7.476 27.916,11.44667 1.99467,0.83066 4.01333,1.63466 6.16533,2.32266 0.472,0.13067 0.92267,0.25867 1.368,0.38 0.003,0.14 0.007,0.28934 0.0107,0.424 0.10933,4.81467 0.10933,4.81467 -2.14267,6.064 -4.64,2.57334 -15.55333,5.74267 -35.36133,11.49734 l -7.89733,2.296 c -13.47467,3.924 -27.33733,3.12666 -41.28267,-0.009 -12.71733,-5.268 -24.592,-13.36266 -36.32,-20.42933 -9.42,-5.548 -20.21066,-12.54933 -31.44666,-16.128 l -2.624,0.616 c 11.65866,4.10533 21.87066,11.58 32.028,18.60533 3.032,2.10934 6.05466,4.27734 9.09866,6.44534 1.68,1.19733 3.36667,2.39066 5.064,3.576 -6.192,-2.24134 -12.36266,-4.672 -18.48933,-7.084 -18.064,-7.116 -36.45333,-14.344 -53.75067,-15.416 l -24.42399,5.74666 c 1.58666,-1.62666 3.264,-3.17866 4.95333,-4.63066 24.896,-20.86934 59.092,-30.17867 91.29333,-25.39867 5.476,0.83733 10.904,2.05067 16.27467,3.56533 -5.19467,-2.024 -10.516,-3.77466 -15.96134,-5.15866 -27.72666,-6.90667 -57.61466,-3.35734 -83.37999,9.15333 -4.72134,2.35467 -9.376,4.93733 -13.78134,7.88667 20.864,-38.14 82.29467,-67.508 133.52667,-60.15867 40.58666,5.82133 59.23199,23.91867 66.73466,34.18667 z m -84.64933,89.35466 -44.472,7.832 c -1.37867,-1.37333 -2.76533,-2.704 -4.16267,-3.98667 l 43.132,-8.25066 -0.23733,-1.24267 c 2.01467,1.77467 3.92667,3.664 5.74,5.648 z m 9.52667,12.796 -45.24,4.136 0.04,0.412 c -1.37867,-1.60533 -2.75867,-3.17467 -4.14934,-4.684 l 43.904,-7.732 -0.0213,-0.12267 c 1.96133,2.52534 3.77467,5.196 5.46667,7.99067 z m -38.408,12.936 c -0.93067,-1.22 -1.86534,-2.41067 -2.80534,-3.58533 l 44.19467,-4.04 c 1.38267,2.68266 2.652,5.46933 3.816,8.35466 -20.10533,0.0947 -40.648,-0.116 -45.20533,-0.72933 z m 54.82933,83.16133 c -0.0147,1.59734 -0.0267,3.19067 -0.0333,4.788 l -10.01467,-4.99066 c -0.83067,-1.988 -1.68267,-4.01734 -2.55467,-6.07867 z m 0.18267,-12.844 c -0.0293,2.22267 -0.0653,4.448 -0.1,6.67067 l -16.084,-8.012 c -1.34934,-3.092 -2.748,-6.232 -4.2,-9.40267 z m -13.17467,-21.4 c 4.70667,1.88134 9.00533,3.54267 12.10267,4.68 0.36,0.132 0.69866,0.25734 1.02533,0.37467 0.0867,3.36 0.11067,6.724 0.0973,10.088 l -24.35066,-12.836 c -1.392,-2.89333 -2.828,-5.79333 -4.31067,-8.692 5.01867,2.156 10.772,4.51867 15.436,6.38533 z m 12.08933,-11.07333 c 0.37334,3.36933 0.64,6.74133 0.816,10.11733 -8.56266,-3.20133 -24.35066,-9.572 -32.53066,-13.36 -1.24,-2.27466 -2.50267,-4.54133 -3.80534,-6.78666 -0.17333,-0.30134 -0.34933,-0.592 -0.52666,-0.88934 13.588,3.892 29.54533,8.61734 36.04666,10.91867 z m -124.01866,63.70933 c -0.432,-2.02533 -0.88134,-4.028 -1.352,-5.99866 l 56.33466,20.70533 c 0.13334,4.132 0.0733,8.272 -0.184,12.412 -24.62666,-11.552 -49.616,-23.73867 -54.79866,-27.11867 z m 46.504,69.54933 c -11.108,-10.656 -33.456,-30.33333 -41.34667,-37.25066 -0.27867,-2.48934 -0.584,-4.932 -0.90133,-7.356 13.11466,9.76533 35.65733,26.26266 45.8,31.988 -1.048,4.232 -2.24,8.44133 -3.552,12.61866 z m -39.43734,-14.41733 c -0.19733,-3.49333 -0.424,-6.992 -0.712,-10.49067 -0.0373,-0.468 -0.084,-0.92533 -0.12266,-1.392 14.30933,12.61334 31.01866,27.608 37.64133,34.20134 -1.51867,4.31866 -3.15067,8.59333 -4.872,12.82133 -8.60533,-8.884 -24.156,-25.78533 -31.93467,-35.14 z m -1.05733,83.576 6.33467,8.08133 c -0.87734,1.94133 -1.744,3.892 -2.59734,5.848 l -4.208,-4.572 c 0.148,-3.056 0.308,-6.17867 0.47067,-9.35733 z m -82.13066,-106.212 c 10.05733,-9.364 39.05466,-34.78933 60.432,-53.36933 1.04133,3.25733 2.02,6.608 2.94133,10.048 -6.58,4.78133 -45.28933,33.056 -60.876,47.74266 -0.85333,-1.47466 -1.684,-2.94533 -2.49733,-4.42133 z m 54.59466,-69.28533 c 1.12534,2.66667 2.19467,5.41867 3.22,8.23333 -5.652,4.91334 -18.892,16.42934 -32.012,27.95733 -15.56933,13.67867 -24.41333,21.52534 -29.452,26.21334 -1.56,-3.07334 -3.02666,-6.14267 -4.38933,-9.212 13.34533,-13.3 49.14533,-42.34267 62.63333,-53.192 z m -69.01866,36.23066 c 10.37333,-10.03866 40.78933,-33.46933 62.61066,-49.66933 1.108,2.06534 2.176,4.192 3.21334,6.36134 -11.62134,9.32 -46.68934,37.65333 -62.53467,52.80399 -1.22267,-3.16933 -2.32267,-6.336 -3.28933,-9.496 z m -4.03067,-18.46533 c 7.46,-7.71866 32.14667,-28.47733 56.14933,-47.71733 2.356,3.15067 4.60134,6.464 6.72667,9.94667 -13.04933,9.67333 -45.71067,34.156 -61.028,48.11066 -0.79733,-3.45866 -1.42,-6.90666 -1.848,-10.34 z m -14.524,-21.66 c -4.53733,-6.996 -9.10933,-14 -12.59867,-19.33733 3.24534,1.736 6.87734,3.04667 10.76534,3.99067 1.548,2.228 3.144,4.53333 4.74533,6.86533 -0.83733,3.32667 -1.44933,6.70267 -1.864,10.10133 -0.34667,-0.536 -0.688,-1.06266 -1.048,-1.62 z m -20.58933,-21.38933 c 6.568,10.01467 14.45333,22.112 20.99866,32.27333 -0.0467,2.59734 10e-4,5.196 0.16,7.79067 -9.736,-13.71867 -22.50666,-29.99067 -25.272,-33.49867 1.348,-2.264 2.71867,-4.452 4.11334,-6.56533 z m -7.54933,-30.25333 c -6.55867,-0.56134 -12.82134,-1.056 -17.66667,-1.352 2.15333,-1.34 4.404,-2.60267 6.77467,-3.76534 0.54,-0.276 1.09733,-0.52133 1.64266,-0.78666 2.74667,0.10666 6.296,0.27866 10.312,0.49466 -0.472,1.88667 -0.82,3.68667 -1.06266,5.40934 z m -25.00667,3.86533 c 2.82533,-0.0627 13.136,0.716 24.584,1.696 -0.016,2.064 0.13333,3.99467 0.42933,5.79467 l -32.34533,-0.65867 c 2.252,-2.42 4.69467,-4.7 7.332,-6.832 z m 78.79333,-74.14266 c 7.26,-2.828 15.19067,-2.948 23.67067,-0.39867 -2.604,4.25333 -5.04667,8.61467 -7.352,12.99467 -10.43334,19.85866 -18.37467,40.90399 -24.36934,62.47466 -1.18266,4.28267 -2.20666,8.60533 -3.31333,12.88933 3.24667,-8.04133 6.75333,-16.52 10.57067,-24.31466 7.52933,-15.73734 16.424,-31.07467 26.57733,-45.208 4.652,-6.42 9.612,-12.83333 15.08933,-18.58 1.996,0.952 7.11334,1.608 7.11334,1.608 4.54,1.744 8.8,4.288 12.56533,7.42933 11.79467,9.58934 17.92,24.99733 19.35067,39.97867 0.77066,8.06933 0.556,16.21333 -0.41467,24.316 -2.84933,-0.796 -5.864,-1.24667 -9.064,-1.24667 -8.58,0 -18.484,3.23467 -29.99067,11.72533 -20.13466,14.86134 -59.82666,21.82667 -77.44,8.77467 -8.39066,-6.21733 -10.11866,-16.49733 -5.14,-30.552 0.27467,-0.77067 0.57734,-1.652 0.91867,-2.632 4.72267,-13.65333 17.26667,-49.92266 41.228,-59.25866 z m 35.35333,-14.18134 c 0.472,1.29867 0.984,2.56534 1.52534,3.81734 -0.596,1.044 -1.19334,2.08933 -1.764,3.15333 l -1.94134,-1.72133 c 0.71867,-1.75334 1.44667,-3.504 2.18,-5.24934 z m 6.348,-31.07733 c 0.25734,-13.67467 3.41734,-28.38267 8.94667,-42.788 -0.472,14.612 -4.14667,28.87067 -8.94667,42.788 z m -1.50533,-116.57866 c 1.56133,-5.916 3.80667,-13.176 9.364,-16.48934 -3.58933,4.95734 -4.016,11.35467 -4.71467,17.24134 -0.94933,11.94933 -0.088,24.016 2.76534,35.66133 1.42666,5.844 3.51733,11.49733 6.26133,17.19733 -4.76,-4.18666 -8.33067,-9.76666 -10.74667,-15.71466 -4.79733,-11.94534 -5.736,-25.352 -2.92933,-37.896 z m 19.48933,117.73333 c 5.128,-13.15467 12.712,-25.376 22.176,-35.90934 -1.356,2.708 -2.77466,5.38 -4.25733,8.00134 -5.38933,9.592 -11.54667,18.792 -17.91867,27.908 z m 54.06667,44.828 c -1.30934,-0.14 -2.63334,-0.272 -3.968,-0.38934 -1.848,-0.52133 -3.70267,-1.02666 -5.572,-1.50133 0,0 -0.10534,0.436 -0.27467,1.14667 -3.15733,-0.0867 -6.38,0.024 -9.676,0.508 -0.52933,0.0653 -1.06,0.15333 -1.58933,0.25333 -5.948,-3.09067 -11.86,-5.48933 -17.45733,-7.316 15.87066,-4.72267 34.36799,0.84933 54.83999,8.648 -5.46133,-0.49333 -10.63733,-0.56533 -16.30266,-1.34933 z m 16.72933,33.41199 c -1.012,-1.50533 -2.05333,-2.96533 -3.12,-4.37866 15.008,-3.99067 32.372,-8.46267 36.55867,-9.13333 2.96133,1.66133 5.75733,3.508 8.40666,5.50799 z m 13.65733,30.672 c 0.436,-0.81066 0.85867,-1.59466 1.25467,-2.32266 0.87733,1.104 1.75467,2.22666 2.62933,3.37466 -0.716,1.28667 -1.63333,2.95867 -2.69866,4.932 -0.304,-1.97733 -0.70934,-3.97466 -1.18534,-5.984 z m -9.392,55.916 c -1.164,-1.92 -2.39333,-3.81066 -3.68533,-5.67733 0.0627,-0.22933 0.12,-0.45733 0.19067,-0.696 4.968,-2.65733 9.112,-7.91867 11.77333,-15.01467 2.07467,-5.54133 3.09733,-11.684 3.10533,-18.17733 1.87734,-3.62133 3.752,-7.13467 5.52267,-10.37067 1.112,1.552 2.21867,3.13734 3.32,4.75867 -4.132,9.496 -14.98533,34.84133 -18.14533,46.37867 -0.69334,-0.39734 -1.38667,-0.8 -2.08134,-1.20134 z m -54.73066,27.75067 c -0.76267,-2.784 -1.56133,-5.512 -2.40267,-8.18667 l 58.15467,16.036 0.0627,-0.22533 c 0.944,4.31466 1.62667,8.65066 2.06,13.00133 l -57.66533,-21.196 z m 21.136,-48.03067 c 0.12933,0.14134 0.26133,0.28134 0.38933,0.42267 2.712,2.96267 5.456,5.94933 8.29333,8.49867 -13.84266,-2.93467 -34.81333,-6.832 -50.34933,-9.64934 -2.168,-3.492 -4.46,-6.81466 -6.85466,-10.004 17.45866,3.73334 37.16666,8.04134 48.52133,10.732 z m -12.45334,-10.56266 c -9.58933,-2.148 -20.39333,-4.49067 -29.34666,-6.41467 5.96933,-2.31733 11.20133,-2.72133 15.91067,-1.80667 4.59066,2.52267 9.09199,5.26 13.43599,8.22134 z m -20.61333,25.76133 c -1.184,-2.52133 -2.41333,-4.98933 -3.69466,-7.388 21.75599,3.99867 49.46799,9.31867 55.26266,11.04133 2.66667,3.69467 5.08133,7.57067 7.20667,11.62934 z m 3.85467,8.76933 57.544,14.96267 0.48666,-1.86667 c 0.50667,1.196 0.99734,2.404 1.45467,3.62934 0.85333,2.26133 1.6,4.54 2.288,6.82266 l -58.99066,-16.268 c -0.892,-2.47066 -1.81467,-4.9 -2.78267,-7.28 z m 57.212,-74.044 c 11.37733,23.40134 7.42133,39.768 5.192,45.71734 -1.944,5.18933 -4.97334,9.08 -8.1,10.40533 -4.784,2.032 -9.90534,-3.19333 -17.868,-11.88267 -7.148,-7.80533 -16.26534,-17.75333 -28.53867,-21.31733 1.72134,-8.02667 2.70133,-16.29733 2.668,-24.56133 0.056,-19.35734 -7.67866,-38.456 -22.84,-49.87067 19.86934,3.928 52.71067,17.00267 69.48667,51.50933 z m -15.072,-34.97466 c -1.116,-0.98933 -2.24,-1.944 -3.37867,-2.86533 l 8.43467,-3.20267 c 1.06533,0.108 2.13066,0.204 3.19466,0.27733 4.072,0.18934 7.96667,0.59067 11.72934,1.156 -6.49334,1.472 -13.72934,3.16134 -19.98,4.63467 z m 41.77866,1.31867 c -8.50933,1.99066 -21.368,5.36666 -32.312,8.30133 -1.508,-1.75867 -3.056,-3.43733 -4.63866,-5.044 10.912,-2.556 21.744,-5.04 28.11466,-6.376 3.06534,0.9 6.01334,1.936 8.836,3.11867 z m -48.83733,-8.732 -1.53867,0.58266 c -0.36133,-0.26 -0.728,-0.51866 -1.092,-0.772 0.87467,0.0507 1.74934,0.11067 2.63067,0.18934 z m -51.97466,-20.368 0.0973,0.02 c 0.79067,0.592 0.9,0.67466 1.79733,1.34933 v 0 c 0.0987,0.0707 0.0987,0.0707 0.196,0.144 -0.72933,-0.10667 -1.44666,-0.20533 -2.144,-0.29067 z m -66.13734,134.33866 c 3.70934,-4.04133 9.15467,-9.18933 15.364,-14.7 7.46534,-1.152 14.88934,-3.10133 21.78,-5.68133 -4.09066,3.34533 -8.54533,7.00933 -13,10.71866 -12.304,10.248 -20.00133,16.98667 -24.86133,21.51334 -0.0533,-3.976 0.176,-7.92667 0.71733,-11.85067 z m 217.77867,-29.18267 c -10.808,-3.596 -32,-9.656 -39.46134,-11.772 -0.97333,-1.568 -1.948,-3.11333 -2.928,-4.628 11.868,2.36534 32.18134,6.236 40.77734,6.844 0.62933,3.11067 1.16933,6.29867 1.612,9.556 z m -5.10934,59.076 6.78934,3.38534 c 0.0227,1.57466 0.0587,3.15066 0.10666,4.72533 l -4.24133,-1.708 c -0.86933,-2.092 -1.756,-4.22667 -2.65467,-6.40267 z m 2.24,-74.27733 c -8.73733,-0.90933 -29.508,-4.82133 -43.91866,-7.75733 -0.672,-0.972 -1.34667,-1.932 -2.02667,-2.884 0.68933,0.0293 1.412,0.056 2.20133,0.0827 4.46,0.15867 10.65867,0.26267 18.412,0.312 3.744,0.024 7.49867,0.0333 10.95867,0.0333 4.51733,0 8.524,-0.0133 11.36,-0.028 1.12933,3.304 2.14133,6.71333 3.01333,10.24133 z M 429.52865,200.95955 c 6.77866,-23.61867 15.3,-61.276 15.196,-84.19067 5.564,13.80267 -6.744,65.10133 -15.196,84.19067 z m -11.40934,-22.14934 c 0.92267,13.17467 3.316,25.98934 4.81067,37.51333 -1.37467,5.35067 -3.17867,10.62134 -5.29867,15.78134 -16.30933,12.50666 -29.42933,29.16266 -37.90133,48.02666 -2.11066,4.836 -4.024,9.804 -5.51066,14.892 -0.264,-1.32666 -0.49334,-2.66933 -0.684,-4.03066 7.27333,-18.13467 13.61333,-36.88534 14.48666,-56.59067 0.70267,-4.87467 1.416,-11.00533 1.83867,-17.82133 7.43867,-13.91467 17.02933,-26.956 28.25866,-37.77067 z m -26.48799,422.96933 c 4.54533,-4.91867 13.88266,-15.18134 20.69866,-22.68534 -0.056,3.42267 -0.13866,6.8 -0.236,10.14267 l -1.30666,-1.20133 c -3.21334,3.5 -11.432,12.47733 -16.852,18.61066 -0.74267,-1.63466 -1.51334,-3.256 -2.304,-4.86666 z m 5.55466,12.54933 c 2.944,-3.39867 8.676,-9.75867 14.61067,-16.25867 -0.18,4.66 -0.38267,9.20934 -0.59467,13.63067 -3.964,3.81066 -8.124,7.68533 -11.12133,10.32933 -0.956,-2.64933 -1.91867,-5.22 -2.89467,-7.70133 z m 5.54267,15.29466 c 1.98933,-1.612 4.64133,-3.964 7.93067,-7.03466 -0.0107,0.23733 -0.0227,0.48266 -0.0333,0.72 -0.076,1.47066 -0.152,2.91866 -0.224,4.35733 l -6.6,5.176 c -0.35466,-1.08133 -0.712,-2.15333 -1.07333,-3.21867 z m 27.64133,-5.38666 -9.30933,-11.868 c 0.13866,-2.91333 0.276,-5.88133 0.40533,-8.90267 l 11.70267,14.92 c -0.944,1.944 -1.87734,3.89333 -2.79867,5.85067 z m 6.48,-13.336 -14.94933,-19.06 c 0.14533,-4.55467 0.25733,-9.2 0.32266,-13.91333 l 18.664,24.95466 c -1.35466,2.66 -2.7,5.336 -4.03733,8.01867 z m 7.764,-15.588 -22.328,-29.84933 c -0.0213,-4.33734 -0.096,-8.71067 -0.22533,-13.10934 4.87866,5.53734 10.53466,11.76267 15.14666,16.74134 4.652,5.02666 8.93734,9.55066 12.064,12.736 0.36667,0.37466 0.71067,0.72266 1.04667,1.05866 -1.83733,4.20134 -3.74667,8.34667 -5.704,12.42267 z m 21.66267,-60.89333 c -10.14934,-6.18934 -33.212,-22.98267 -49.09334,-34.912 -0.25466,-1.58 -0.52,-3.14934 -0.796,-4.69734 0.82,0.43067 1.68,0.87734 2.62267,1.368 5.356,2.77867 12.85867,6.49734 22.29867,11.056 10.49866,5.072 21.12133,10.076 27.25466,12.95334 -0.55333,4.75333 -1.32133,9.50266 -2.28666,14.232 z m 6.508,-87.16133 c 1.444,-6.30134 8.94666,-25.272 16.88133,-43.672 1.548,2.40933 3.08933,4.884 4.62133,7.436 -2.43466,6.22 -11.308,29.13466 -14.368,40.35866 -2.364,-1.37866 -4.744,-2.752 -7.13466,-4.12266 z m 49.80133,36.59733 c 0.81733,-1.708 1.84,-4.11733 3.06267,-7.208 0.0667,0.16267 0.13466,0.32933 0.20133,0.48933 0.42,1.00934 0.828,2.00267 1.23867,2.98667 l -2.75867,5.536 c -0.58133,-0.60667 -1.164,-1.20934 -1.744,-1.804 z m 13.996,0.0533 3.028,1.21867 c 0.0853,2.06666 0.19067,4.132 0.34133,6.20133 0.016,0.17867 0.0293,0.35733 0.044,0.53333 -1.11466,-2.53066 -2.248,-5.18933 -3.41333,-7.95333 z m 180.87866,18.18267 c -10.372,-7.60534 -24.64267,-10.34934 -36.68133,-5.32667 -8.904,3.64667 -16.244,10.86667 -19.92133,19.73867 -3.896,9.02133 -2.64134,20.35733 7.48266,24.35066 -2.89066,-1.25333 -5.46533,-3.31733 -7.06,-6.032 -4.80533,-8.50533 -0.668,-19.04266 5.01067,-26.06 7.79333,-9.78133 20.87733,-14.976 33.18933,-12.52 25.052,4.42534 39.92933,33.46934 33.01333,57.00534 -3.22933,11.80666 -11.592,21.62933 -22.048,27.80533 -60.48933,34.908 -97.50799,-35.93733 -109.96666,-85.52267 -9.28667,-43.81733 -31.22267,-83.66133 -61.99066,-114.73866 -6.52,-15.708 -16.13067,-29.004 -29.08534,-38.75733 10.548,2.888 21.29734,4.80933 32.056,4.80933 7.43067,0 14.87067,-0.91733 22.24133,-3.064 l 7.888,-2.29333 c 42.40534,-12.31733 45.86934,-13.324 45.52,-28.49733 -0.0693,-3.07467 -0.156,-6.90267 0.724,-12.14134 2.13334,-12.7 -1.684,-26.528 -10.75066,-38.93866 -14.42267,-19.74934 -39.97067,-33.30934 -72.06933,-38.32 l 2.65866,-3.96267 c 24.62133,-36.65333 26.63333,-39.64933 16.63067,-51.06533 -2.02534,-2.31333 -4.54934,-5.19333 -7.23467,-9.77333 -6.512,-11.112 -18.31333,-19.27067 -33.22933,-22.972 -19.36133,-4.80534 -41.75333,-1.70267 -64.45733,8.692 1.93466,-14.132 2.60933,-30.15734 -3.12934,-35.27334 -4.768,-4.01066 -11.12,0.588 -13.62266,4.456 -3.20934,4.83067 -5.44267,10.66134 -6.98,16.95867 -0.452,0.92267 -0.872,1.84667 -1.27734,2.77467 -7.48666,-12.47467 -16.87599,-22.16267 -22.32399,-35.300004 -3.51467,-7.382667 -9.09334,-10.306667 -15.53334,-10.546667 3.38667,-11.047999 4.83734,-22.686666 2.876,-34.825332 -0.176,-1.885333 -0.53733,-3.761333 -1.152,-5.611999 -0.25333,-1.025334 -0.52133,-2.049334 -0.82666,-3.078667 -2.00267,-6.789333 -4.74,-7.357333 -7.89067,-3.984 -0.668,0.07333 -1.34667,0.248 -2.028,0.565333 -3.81333,1.817334 -5.97067,5.518667 -7.93733,8.797333 -3.628,6.492 -6.12667,13.212 -8.432,20.156 -3.22667,10.023999 -5.74534,20.238666 -7.68934,30.564003 -3.42266,2.17333 -6.5,4.28666 -9.00533,6.024 -8.196,5.844 -16.49867,11.99866 -23.012,19.74133 -0.49467,0.56667 -0.98,1.13867 -1.464,1.71867 -1.16133,-1.10267 -2.49867,-1.97867 -4.12533,-2.37734 -4.35467,-0.60533 -6.32267,4.89734 -6.48534,8.16267 -0.228,3.15067 0.044,6.20133 0.60934,9.19067 -5.45734,10.55333 -8.23067,22.08666 -6.55067,33.32533 -9.90533,-8.65733 -20.70667,-15.81867 -32.06,-20.81067 -54.192,-23.82 -101.3,-8.62 -122.136,15.58134 -0.744,0.864 -1.452,1.68133 -2.124,2.456 -6.92133,7.98133 -11.09999,12.79866 -9.91066,19.52933 1.02933,5.82533 5.71333,10.57467 15.97466,20.984 6.19467,6.28266 14.68,14.88933 25.46934,26.92666 13.71466,15.304 32.156,23.30534 52.01466,28.624 -14.14133,1.26934 -27.62666,4.36667 -39.50666,9.25734 -30.896,12.716 -53.052,32.48133 -62.38493,55.65066 -5.7416,14.25733 -6.0468,28.59867 -0.85987,40.38667 2.32707,5.29066 3.0088,9.516 3.60987,13.24133 1.02866,6.38933 2.09586,12.99467 11.72293,16.664 7.14266,2.724 19.63333,4.08533 46.09066,5.02533 0.85867,0.028 1.70934,0.044 2.56267,0.044 4.25067,0 8.412,-0.388 12.496,-1.084 -26.35467,25.33467 -46.61333,56.97734 -58.27733,91.64 -12.2392,37.916 -39.76413,96.744 -85.865733,97.15333 -17.748933,-0.41866 -36.117199,-10.108 -46.479185,-24.8 -10.6635387,-15.18133 -10.0640588,-36.388 0.277613,-51.704 9.902106,-15.61466 31.051573,-24.46266 48.359305,-15.96666 8.398,4.03466 15.172933,11.564 18.2152,20.41066 1.988533,5.82267 2.3468,12.804 -1.348,18.04267 -1.8104,2.57333 -4.542667,4.42267 -7.527066,5.43333 3.002133,-0.948 5.796933,-2.744 7.687999,-5.32 3.867734,-5.23866 3.6516,-12.376 1.75,-18.33866 -2.943733,-9.14267 -9.676533,-16.936 -18.254666,-21.29334 -11.589066,-5.98533 -26.033866,-4.408 -36.990132,2.32667 -16.7603599,10.24267 -25.89785303,30.972 -22.6462917,50.39067 3.0973985,19.92666 19.4036247,34.98133 37.5088247,42.18133 55.464132,21.15733 94.262532,-42.56 110.840132,-86.43067 15.888,-48.66533 47.59733,-89.92799 89.052,-116.95333 -29.28134,28.08134 -32.71334,73.88267 -23.58934,119.948 2.8,15.98933 10.85867,55.84133 3.53467,69.26 -0.02,0.0293 -0.0427,0.0667 -0.0653,0.0987 l 8.772,5.62666 c 0.0227,-0.0347 0.0387,-0.0653 0.0587,-0.0973 l 0.004,10e-4 c 12.12667,-18.70533 26.34534,-44.06533 40.88134,-60.57866 9.052,-9.96934 19.61066,-18.35067 29.97999,-26.93867 3.968,-3.124 7.85467,-6.33733 11.60934,-9.63333 2.58266,8.01733 5.82133,15.74266 9.524,23.24933 -6.92134,13.03867 -15.79334,25.048 -26.232,35.38267 -11.83334,11.80933 -25.80133,21.472 -40.972,28.68933 -3.78267,1.83467 -7.644,3.37733 -11.684,5.16667 -11.968,5.34133 -23.47333,11.74 -33.75333,19.98266 -13.54,10.81333 -26.23334,26.80933 -24.572,45.196 1.736,17.24 15.51466,35.01307 33.404,36.93867 17.60933,2.2292 36.40133,-11.39467 36.80133,-29.668 0.39467,-8.812 -4.59067,-17.384 -12.18533,-21.724 -5.40267,-3.144 -13.04134,-4.86534 -18.35067,-0.68934 -1.68133,1.368 -2.804,3.32667 -3.34533,5.396 0.584,-2.05866 1.744,-3.97866 3.428,-5.292 8.956,-6.32266 22.21866,1.548 26.65466,10.12 10.64534,21.09734 -11.268,42.71987 -32.69466,39.46254 -16.55334,-2.2948 -28.68534,-18.9212 -29.94134,-34.8292 -0.996,-25.79734 24.83067,-43.52667 45.47467,-53.968 3.772,-1.87467 7.62533,-3.60533 11.52667,-5.21867 20.38133,-7.61866 39.75733,-18.816 55.57466,-34.03066 9.912,-9.4 18.54267,-20.12 25.65067,-31.76534 10.54666,19.12 23.67733,36.98 35.928,54.90934 8.11866,12.02933 15.516,24.156 20.99866,37.52799 9.55867,23.47734 19.04934,59.18267 26.55467,84.08547 l 0.007,-0.002 c 0.0147,0.048 0.024,0.0989 0.0373,0.14533 l 13.47733,-4.0984 c -0.0187,-0.0537 -0.0347,-0.112 -0.052,-0.1656 -1.69333,-6.0068 0.156,-14.26413 1.74533,-20.8132 10.82134,-40.32533 35.452,-75.21333 47.704,-115.20799 8.588,-26.98134 11.59067,-52.45067 8.29867,-75.60667 6.848,17.988 10.15733,37.376 9.56933,56.53333 -0.44266,16.712 -3.91733,33.33867 -9.94533,49.01734 -1.47867,3.93733 -3.21333,7.71733 -4.91067,11.79466 -4.99733,12.11733 -8.93333,24.67867 -10.70933,37.73467 -2.36667,17.16666 -0.55333,37.508 13.31467,49.69306 13.15733,11.30427 35.336,14.69907 49.66,3.76934 14.30133,-10.50787 18.54266,-33.3304 6.24666,-46.8544 -5.784,-6.65867 -15.30266,-9.44 -23.79866,-7.356 -6.08134,1.44 -12.804,5.45333 -13.78,12.14 -0.27467,2.15066 0.25866,4.34266 1.29333,6.21466 -0.99467,-1.89466 -1.476,-4.08533 -1.16,-6.19866 2.13867,-10.75067 17.17467,-14.18 26.29467,-11.02 8.12533,2.54533 14.07066,9.89866 15.98933,18.036 2.97067,12.2 -2.35333,25.916 -12.516,33.092 -13.57733,9.74013 -33.82533,6.0412 -45.69067,-4.62654 -18.48,-17.9588 -11.98133,-48.7108 -4.20533,-70.44813 1.44533,-3.96 3.04533,-7.86666 4.76533,-11.724 9.528,-19.55866 15.864,-41.024 16.85067,-62.948 1.40267,-26.88133 -4.30667,-54.044 -16.49333,-78.02799 6.20933,3.74133 12.32133,7.69733 18.01066,12.176 17.156,13.89333 35.28134,36.33333 50.468,52.85733 l 0.003,-10e-4 c 0.0253,0.028 0.0467,0.0573 0.0747,0.0853 0,0 7.70134,-7.016 7.70267,-7.016 -0.028,-0.032 -0.0587,-0.0653 -0.088,-0.0987 -0.60667,-0.65067 -1.228,-1.59467 -1.784,-2.664 -1.852,-3.62667 -2.82133,-7.644 -3.652,-11.8 -2.18133,-11.704 -2.61067,-23.98933 -2.78,-35.992 -0.11733,-18.69866 0.87733,-37.424 -1.91067,-56.14133 -0.41866,-3.22 -0.93066,-6.38933 -1.52533,-9.50533 17.99867,21.45733 31.91867,46.34666 40.27333,73.15466 1.37067,4.25867 2.78134,9.096 3.93467,13.44 5.61733,20.13467 13.08933,39.78533 23.956,57.772 16.91067,28.45733 45.732,53.104 80.81066,42.00667 18.636,-5.70267 36.10134,-19.38667 40.81467,-38.99334 4.82,-19.08933 -2.60533,-40.49333 -18.476,-52.06266" style="fill:#100f0d;fill-opacity:1;fill-rule:nonzero;stroke:none;stroke-width:0.133333"></path>
    </g>
  </g>
</svg><style>@media (prefers-color-scheme: light) { :root { filter: none; } }
@media (prefers-color-scheme: dark) { :root { filter: none; } }
</style></svg>